<?xml version="1.0" encoding="UTF-8"?>
<svg id="Layer_2" data-name="Layer 2" xmlns="http://www.w3.org/2000/svg" viewBox="0 0 914.82 384.9">
  <defs>
    <style>
      .cls-1 {
        opacity: .5;
      }

      .cls-2, .cls-3 {
        stroke-width: 0px;
      }

      .cls-3 {
        fill: #fff;
      }
    </style>
  </defs>
  <g id="Layer_1-2" data-name="Layer 1">
    <g class="cls-1">
      <path class="cls-2" d="m462.45,17.1l-.12,28.28c2.75,1.14,4.4,4.02,1.83,6.36-3.44,3.14-4.93-1.75-9.11-.7-.21.05-1.48,2.28-2.79,2.23l-.24,135.1,3.04,3.35c3.07.84,4.53-1.89,6.52-1.71,1.39.12,3.11,1.55,3.4,2.93.67,3.23-2.52,3.69-2.65,4.81v27.36c.13,1.17,3.92,1.86,2.38,5.47-.5,1.17-2.2,2.34-3.48,2.31-1.95-.04-2.75-2.13-3.56-2.23-12.39.25-24.87-.33-37.19.49-1.01.07-4.15.33-4.84.53-1.33.39-2,2.93-5.23,1.47-3.92-1.77-.24-5.58,0-7.6.32-2.67.32-25.87-.24-27.11-.71-1.54-3.83-3.31-.99-6.15s4.91.54,6.39.78c2.6.41,4.07-1.26,5.12-3.38l.04-45.7-2.96-2.44c-4,.32-8.08.19-12.08.44-2.06.13-12.25.91-13.19,1.6s-1.25,2.46-3.2,2.71v46.46c2.23,1.4,3.18,2.54,6,1.55.62-.22.95-1.53,2.1-1.89,3.28-1.02,5.84,1.48,4.82,4.81-.29.96-1.94,1.41-1.72,2.75.83,8.76-1.02,19.28-.01,27.81.13,1.07,1.79,1.02,2.18,2.32,1.46,4.9-4.4,6.87-6.91,2.89-11.56,1.05-23.32,1.72-34.88,3.07-1.56.18-5.46.5-6.63.99-.92.39-1.28,2.1-2.68,2.7-3.11,1.33-5.7-1.54-4.72-4.72.17-.56.86-.85,1.01-1.22.55-1.34.61-26.11.28-28.9-.11-.94-1.27-.87-1.63-1.97-.88-2.61.4-5.14,3.24-5.28,1.85-.09,3.23,2.39,6.12.68,1.04-.61,1.2-2.5,2.78-3.04l.24-135.1c-.23-2.43-3.29-3.72-5.41-2.67-1.04.52-.81,2.39-3.36,2.5-2.89.12-4.54-2.35-3.7-5.09.24-.77,1.2-1.09,1.47-1.66.59-1.27.6-25.39.25-28.02-.21-1.61-1.42-1.9-1.72-3.2-1.13-4.88,4.35-5.88,7.3-2.81,6.85-.92,13.73-2,20.6-2.69,6.37-.64,14.01-.41,20.13-1.37,2.35-.37,2.75-3.18,5.96-1.87,1.86.76,2.37,2.89,1.82,4.72-.24.77-1.21,1.09-1.47,1.66-.61,1.3-.61,27.36,0,28.66.27.57,1.23.89,1.47,1.66,1.01,3.31-1.51,5.97-4.86,4.86-1.49-.49-2-2.43-4.61-1.52l-3.43,4.18-.02,43.83c1.53.88,2.98,1.37,3.17,3.44l25.64-1.8,2.56-4.26.02-44.25c-2.17-1.64-1.45-3.53-5.07-2.47-1.63.48-2.87,4.33-6.17,1.5s-.09-4.38.69-6.08c.59-1.28.59-26.92,0-28.21-.79-1.73-3.4-2.15-1.32-5.37,2.3-3.55,4.5-.67,7.12-.44,1.85.16,3.32-.47,4.94-.5,12.16-.22,24.42.4,36.52-.21,4.09-6.14,11.5.54,5.03,4.36Zm-2.43,0l-2.14-2.11c-14.1-.05-28.39.27-42.49,1.19-.43,1.5-1.18,2.57-2.66,3.16l-.04,28.07c1.86.17,1.55,1.66,3.27,1.88,3.62.46,3.22-1,5.16-1.63,3.3-1.08,6.25,2.81,3.99,5.8-.55.73-1.6.83-1.73,1.85l-.03,43.47c.12.98,3,1.62,2.64,4.36-.7,5.29-9.11,1.64-12.7,2.54-6.41,1.14-14.26-.07-20.56,1.39-2.08.48-3.5,3.16-6.31.88-3.07-2.49.46-5.08.71-6.93-1.07-13.63,1.34-29.22,0-42.61-.27-2.74-3.98-4.02-1.58-7.35s4.7-.21,6.29,0c.41.05,3.04-.33,3.43-.47.26-.09,2.11-2.64,2.96-2.97l-.15-27.02c-.37-.81-1.42-.99-1.89-1.47-1.32-1.37.59-1.91-3.48-1.66-4.52.27-38.06,3.03-39.44,4.46-.73.76-.32,2.24-2.39,2.31l.02,28.31c4.6,6.35,6-.99,9.88-.51,2.77.34,3.77,3.12,2.53,5.46-.65,1.22-1.97,1.23-2.22,2.28v135.32c.25,1.09,1.41.91,1.94,2.11,1.02,2.33.04,4.91-2.61,5.25-2.43.32-4.07-2.26-6.86-1.28-.12,1.98-1.24,2.85-2.75,3.85v27.61s2.72,1.88,2.72,1.88c12.35-.96,24.67-2.89,36.94-4.26,1.55-.17,3.53.27,4.93,0,.92-.18,1.91-1.98,2.83-2.54v-28.08c-1.5-1.25-2.51-2.8-4.64-2.58s-1.32,1.48-2.32,2.3c-2.79,2.29-7.02-.25-5.76-4.08.35-1.07,1.73-1.59,1.62-2.86-1.06-14.42,1.33-30.65,0-44.85-.25-2.64-3.26-4.8-1.12-7.35,2.43-2.89,4.02-.45,5.6.19,2.11.87,14.84-.86,18.13-1.1,2.53-.19,6.19.53,8.41-.55,1.8-.88,3.77-4.03,6.45-1.1,2.9,3.17-.93,4.58-1.22,6.78v45.28c.1.95,1.33.95,2,2.04,1.44,2.31.11,4.99-2.43,5.6-1.97.47-2.75-1.29-4.27-1.58-3.56-.69-3.61,1.08-5.96,2.96l.14,27.49c1.47.17,2.48,2.37,3.23,2.6,2.31.71,6.52-.31,8.88-.36,4.33-.1,8.71.35,12.97-.47l19.29.02,2.83-2.54v-28.08c-1.95-1.99-2.73-3.26-5.87-2.43-.76.2-1.28,1.12-2.38,1.24-3.72.41-5.76-4.65-2.52-7.04l.12-135.22c-.24-2.41-3.36-6.68,1.19-7.72,3.81-.87,3.69,1.94,4.47,2.15,2.79.74,3.56-.55,4.97-2.56v-28.71Z"/>
      <path class="cls-2" d="m638.96,39.94l-.1,27.91c.32,1.32,1.79,1.28,2.35,2.57,1.62,3.69-2.37,6.85-5.48,4.58-1.02-.74-1.07-2.16-1.69-2.45-2.23-1.04-3.51.43-5.51,1.16v134.75c2.87.63,3.19,2.24,3.9,4.78l24.35,6.08c1.06.09,3.24-1.46,3.17-2.72l-.25-134.2c-2.14-.36-2.12-3.62-2.75-4.07-.24-.17-2.75-.83-3.1-.81-.62.04-1.11.71-1.79.83-3.06.57-5.3-1.49-4.57-4.57.32-1.35,1.68-1.74,1.88-2.13.62-1.21.61-24.55.27-27.13-.21-1.59-1.25-1.75-1.62-2.86-.99-3,1.29-5.56,4.41-4.87,1.76.39,1.8,2.35,3.46,2.83,10.72,3.14,21.46,6.27,32.15,9.51,1.97.6,7.32,2.97,8.8,2.81.82-.09,1.47-.83,2.27-.85,1.64-.05,3.65,1.69,3.82,3.36.3,2.93-2.59,3.35-2.72,4.42.9,8.36-1.08,18.83.01,26.92.28,2.1,4.7,4.5.71,7.37-4.5,3.24-5-3.67-8.19-3.97-.95-.09-3.07,1.49-3.24,2.39l-.03,142.48c.12.98,3,1.62,2.64,4.36-.48,3.65-3.49,2.45-5.28,3.24-.72.32-6.1,6.04-7.19,7.15-1.38,1.41-7.99,8-8.53,8.94-1,1.75.04,4.73-3.37,5.17-3.82.49-3.41-2.6-4.78-3.27l-38.32-10.08c-1.97-.17-3.12,1.56-5.46.57-2.91-1.23-1.45-4.38-2.03-6.01-1.61-4.5-10.49-15.78-13.67-20.39-.51-.74-2.11-4.06-2.31-4.19-.81-.51-2.74.37-3.9-1.7-1.94-3.47,1.02-4.04,1.32-6.2l-.25-144.05c-1.61-.29-2.18-2.82-2.76-3.18-.48-.3-3.64-.81-4.41-.86-1.8-.11-3.01,1.4-4.95-.87-2.45-2.86.13-3.72.92-5.41.58-1.25.6-25,.26-27.57-.19-1.41-.99-1.59-1.41-2.64-1.47-3.65,3.23-6.31,5.85-4.05.63.55.69,1.57,1.13,2,.89.86,17.62,3.56,20.47,4.17,3.56.76,19.57,5.12,21.61,4.79.69-.11,1.17-.77,1.86-.89,4.27-.74,6.21,5.2,2.08,6.81Zm-3.99-.68c-.71-.86-.65-2.39-1.8-2.9-13.26-2.97-26.38-6.35-39.8-8.63-.98.03-3.15,1.53-3.34,2.48l.1,26.34c.25.86,1.63,1.51,2.1,2.38.94,1.77.16,3.42,3.83,2.86.91-.14,1.48-1.06,2.37-1.26,3.34-.77,5.86,2.5,4.11,5.47-.58.98-1.71.86-1.78,1.82l.02,144.19c2.85,1.22,3.93,3.5,2.29,6.34,2.06,2.85,15,24.32,16.42,24.77,2.59.82,4.53.19,5.16,4.02l39.07,9.96c2.29-1.94,3.98-.85,6.32-1.31,2.14-3.06,14.72-13.29,14.99-15.98.24-2.39-1.05-3.75,2.25-5.43l.02-143.29c.04-1.17-1.01-1.66-1.4-2.63-1.47-3.58,2.76-6.69,5.65-4.31.92.76.75,1.97,2.12,2.8,1.01.61,3.02,1.29,3.68-.1l.21-28.44-2.48-4.24-39.47-12.11-3.52,2.22-.13,26.57c1.29.6,2.55,4.13,2.89,4.39,2.55,1.98,4.95-.44,7.24.25,3.36,1.01,3.28,5.42.31,6.88v135.28c3.54,1.7,2.48,7.49-1.69,7.08-2.53-.25-2.62-2.59-4.35-3.28-3.67-1.46-21.17-5.76-24.94-6.01-1.99-.13-4.56,1.34-6.01-1.12-1.63-2.76.72-4.02.95-6.27V73.64c-1.01-2.44-2.3-6.78,1.58-7.34,5.11-.74,4.66,7.17,9.06,1.91l-.33-27.73c-.41-.61-1.35-.81-1.69-1.22Z"/>
      <path class="cls-2" d="m803.15,122.86c1.76,1.37,1.36,5.38-.99,6.14.5,12.74-1.44,27.54-.26,40.12.24,2.58,3.28,4.66.51,7.17-3.56,3.24-5.26-1.28-7.33-2.6-1.55-.98-16.09-7.94-17.34-8.21-1.71-.37-3.49.81-4.83-1.88-1.49-2.98.98-3.56,1.26-5.69v-32.66c-3.11-.81-2.07-2.87-2.94-4.33-1.19-1.98-21.81-9.69-25.42-11.23-.35-.15-.35-.86-.59-.89-1.27-.16-2.29,1.86-3.8,2.09l.25,48.55c3.19,1.3,1.58,3.85,4.39,5.47,5.27,3.03,14.52,5.8,20.57,8.55,3.17,1.44,8.99,5.21,12,5.96,1.09.27,1.76-.77,2.88-.71,3.12.18,4.41,3.68,2.58,6.15,4.89,8.85,9.29,20.14,14.63,28.64,1.6,2.55,2.59,2.19,3.91,3.7,2.46,2.81-.44,3.91-.73,6.05,1.42,18.36-1.79,39.35,0,57.4.26,2.57,2.48,2.84,1.73,6.15-.68,3.01-3.73,1.51-5.53,2.54l-13,12.09c-.88,2.57-1.49,4.93-4.85,4.5-2.47-.31-2.03-2.08-3.22-3.08-1.89-1.57-13.35-6.36-16.45-7.74-7.68-3.44-15.66-6.28-23.25-9.93-1.95-.53-3.6.88-5.53-.26-2.54-1.51-.81-4.06-1.28-5.85-.6-2.28-6.21-11.4-7.8-14.19-1.46-2.58-6.41-12.12-7.93-13.58-1.07-1.03-3.18-.59-3.71-3.02-.61-2.77.89-2.76,1.47-4.17.54-1.32.6-25.77.26-28.45-.25-1.96-3.25-4.89.25-6.87s4.2.94,6.03,2.37c1.1.86,3.82,1.8,5.23,2.39,1.77.74,11.97,4.83,12.95,4.92,1.55.14,2.82-1.79,5.12.31,2.56,2.33.58,4.66-.92,6.76l.04,19.88c3.33-.31,2.48,3.41,3.81,4.48l26.17,11.48,2.68-2.7-.23-40.1c-2.46-.52-2.21-3.63-2.91-4.25-.74-.66-5.28-2.69-6.56-3.3-9.12-4.34-18.79-7.64-27.93-11.96-2.15-.55-4.26,1.26-6.14-.79-2.15-2.35,0-3.92-.33-5.24-.45-1.8-5.18-9.63-6.46-11.95-1.98-3.6-6.31-12.4-8.56-15.07-.7-.83-3.17-.32-4.17-2.66-.94-2.19.15-3.4,1.67-4.82l.26-66.99c-.26-1.93-2.15-2.18-1.81-4.86.42-3.25,3.34-2.33,5.16-3.38.91-.52,14.02-13.65,14.79-14.78,1.07-1.57.76-3.93,3.22-4.43,3.68-.75,3.72,2.88,5.35,3.87.86.52,2.64.7,3.72,1.2,12.06,5.63,24.28,10.89,36.3,16.61,5.21-1.1,7.87,1.65,5.13,6.5l15.07,29.27c.74,1.15,2.35.47,3.41,1.3Zm-24.59-35c-.4-.66-12.28-5.42-14.12-6.26-7.76-3.55-16.12-7.81-24.1-10.84-3.03-1.15-1.87-.32-3.8.26-1.74.52-2.72.21-4.22-.65l-14.88,14.74c1.52,2.61.59,5.13-2.36,5.89l-.11,66.92c.15,1.24,3.17,1.3,2.72,4.43-.13.91-1.04,1.56-.68,2.47l14.97,27.08c.43.54,1.63.22,2.31.48,3.05,1.15,1.69,3.55,2.65,4.52.59.6,6.12,2.23,7.49,2.81,8.66,3.69,17.13,7.73,25.85,11.33.67.27,1.48,1.13,1.93,1.2.63.11,1.4-.73,2.2-.81,3.17-.34,5.33,3.14,3.52,5.82-.54.8-1.6.65-1.58,1.56v39.92c-.26,1.25,1.03,1.3,1.39,1.87,2.02,3.21-.3,6.95-4.07,5.74-1.1-.35-2.25-2-3.54-2.74-3.79-2.18-21.88-10.66-25.44-11.3-2.52-.45-3.78,1.25-5.96-.76-3.31-3.05.19-4.44.49-6.71.25-1.89.19-18.64-.24-19.52-.3-.59-1.44-.88-1.97-1.61-.72-1-.39-2.72-1.2-3.25l-16.68-6.25-4.16,1.54v27.65c3.6,1.47,4.02,4.07,1.89,7.16l15.56,27.36c.5.64,4.12-.05,4.88,2.84.19.7-.08,1.92.15,2.3.27.44,8.35,3.01,9.65,3.56,10.36,4.39,20.52,9.38,30.78,13.99,1.73-3.28,4.37-.91,5.89-.93.95-.01,2.2-2.3,3.11-3.14,1.66-1.54,9.99-7.98,10.06-9.59.03-.76-.59-1.27-.23-2.51.41-1.44,2.42-2.17,2.52-2.54l-.23-58.82c-1.45-.92-3.25-2.18-2.84-4.15.2-.99,1.38-1.5,1.22-2.68-.1-.69-2.73-5.93-3.29-7.06-1.35-2.77-11.47-22.11-12.53-22.86-.64-.45-1.46-.35-2.01-.68-2.22-1.33-1.35-3.42-2.27-4.45-.86-.97-9.59-4.17-11.52-5.06-5.5-2.54-16.2-8.48-21.74-9.66-2.38-.51-4.52,1.35-6.27-1.31-2.28-3.47,1.17-3.83,1.47-6.79,1.48-14.79-1.18-32.03,0-47.09-1.07-2.51-3.4-4.48-.26-6.92,3.68-2.86,4.46,1.08,6.63,2.34,6.11,3.54,15.77,6.69,22.57,9.68,1,.44,3.51,2.12,4.06,2.23,1.56.33,3.32-1.47,5.3.51,3.14,3.15-.87,4.72-1.17,6.94l.08,31.77c.27.76,1.67.72,2.4,1.62,1.26,1.57.46,3.19.88,4.01.91,1.77,14.01,6.37,16.35,8.34l3.09-1.67.09-40.06c.14-1.33-1.26-1.78-1.76-2.72-1.36-2.54.55-3.24.32-4.77-.25-1.68-6.06-12.25-7.31-14.68-1.75-3.39-3.92-6.6-5.68-10-.56-1.07-1.52-4.27-2.12-4.94-.56-.62-2.29-.1-3.39-1.64-.99-1.39-.4-2.91-.76-3.5Z"/>
      <path class="cls-2" d="m822.54,149.61c-.05-.08-.99-.04-1.55-.91-.62-.96-.43-2.65-.98-3.16-2.28-2.09-4.07-.45-6-1.05-2.06-.64-2.72-2.94-2.13-4.87.24-.77,1.2-1.09,1.47-1.66.57-1.23.6-24.6.25-27.12-.23-1.68-1.88-2.69-1.73-4.35.26-2.99,4.02-4.43,6.23-2.39.8.74.82,1.84,1.51,2.52,2.69,2.67,13.76,7.88,17.86,10.37,14.22,8.64,28.73,18,42.39,27.5,3.22,2.24,10.31,8.73,13.49,9.82,1.13.39,3.19-.89,5.04.2s1.67,5.56-.8,6.3l-.25,55.34c.32,2.34,3.1,3.72.72,6.5-3.53,4.12-5.59-1.1-7.41-2.95-.96-.97-13.95-10.43-14.82-10.73-1.83-.65-5.79,1.21-6.62-2.8-.66-3.23,2.51-3.69,2.65-4.81-.74-3.25.91-18.52-.13-20.31-.54-.93-3.59-1.8-2.69-4.93l-16.62-10.97c-.94-.4-2.72.97-2.57,2.11l.1,43.86c.3.92,2.29,1.05,3.02,2.36.63,1.14.29,2.05.59,2.99.52,1.65,20.73,13.28,23.33,16.09,2.96.97,6.42-.76,6.19,4.17-.1,2.26-1.12,1.85-1.61,2.91-.56,1.21-.59,24.16-.26,26.68.24,1.82,3.67,4.66.21,6.87-3.63,2.32-5.32-1.29-6.93-3.74l-21.02-13.96c-1.32-.53-2.19,1-3.52,1.24l-.02,44c3.57,1.58,2.73,2.57,3.63,5.33.66,2.03,13.98,9.28,16.47,11.3.39-.42,1.32-.71,1.57-1.12.49-.79.5-16.74.25-18.61-.24-1.77-1.39-1.78-1.93-3-1.28-2.91,1.78-6.3,4.76-4.75,2.44,1.27,1.59,3.13,2.73,4.44,1.46,1.68,11.07,8.13,13.54,9.75.64.42,2.22,1.68,2.72,1.8,1.7.39,4.91-1.34,5.47,2.57.49,3.41-1.64,3.32-1.81,4.43l.02,54.69c1.53,2.48,2.87,6.9-1.2,7.74-3.57.74-3.57-2.31-4.85-3.93-2.63-3.34-18.21-12.65-22.7-15.7-15.1-10.24-32.44-22.38-48.72-30.7-4-2.04-2.92-.43-5.51-.75-2.82-.35-4.06-4.06-2.32-6.16.32-.39,1.08-.55,1.32-.92.74-1.19.6-25.3.26-28.02-.23-1.85-1.58-1.43-2.07-2.85-1.2-3.52,1.39-5.9,4.86-4.86,2.78.83,1.37,7.5,6.14,4.83v-136.64Zm-6.72,138.43v29.12c0,.06.77.06,1.12.43,1.43,1.52,1.69,2.25,1.64,4.43,22.36,12.28,43.97,26.02,64.86,40.64,1.65,1.15,7.5,6.62,9.1,6.4.91-.13,2.85-1.21,2.6-2.37l-.11-53.25c-2.25-1.92-3.21-2.69-3.04-5.89l-16.36-11.39-1.57.4v19.49c0,.16,1.74,1.5,2.04,2.44.99,3.08-1.24,5.38-4.28,4.75-2.38-.49-1.95-2.42-3.36-3.83-1-1-4.09-2.98-5.46-3.95s-10.37-6.97-11.22-7.19c-1.43-.37-3.45,1.24-5.07-1.6-1.57-2.76.79-3.47.95-5.82-1.29-13.8,1.62-30.49-.02-43.94-.19-1.58-1.14-2.08-1.34-3.15-.58-3.17,2.47-5.29,5.36-4,1.44.64,1.45,2.82,2.52,3.75l22.27,14.32,2.56-1.58-.25-26.13c-2-1.21-3.54-2.59-2.54-5.12l-23.7-16.17c-1.48-.56-3.42,1.3-5.35-.88-2.36-2.66.21-4.16.48-6.26,1.75-13.73-1.38-31.17,0-45.29.11-1.27-1.26-1.79-1.62-2.86-1.15-3.48,2.4-6.13,5.5-4.2,1.78,1.12,1.1,3.03,1.76,3.77,3.32,3.69,12.94,6.99,16.76,10.92,1.58.7,4.22-1.06,5.83,1.77,1.96,3.45-1.58,4.51-1.82,5.84-.3,1.66-.26,18.86.1,20.08.27.91,1.61,1.41,1.92,2.11.49,1.12-.17,2.4.68,3.35l15.45,10.85,2.94-1.49-.02-55.41c-2.42-1.01-2.07-2.71-2.95-4.31-1.25-2.27-25.14-18.33-29.17-21.01-13.43-8.91-27.47-17.46-41.67-25.08-2.6-1.4-2.79-2.9-5.51.58l-.02,25.91c3.86.82,2.06,6.21,5.7,6.47,1.19.09,1.55-1.34,3.99-.38,2.98,1.18,2.71,5.45-.03,6.75l-.25,135.09c-.09,1.32,1.18,1.73,1.71,2.77,2,3.92-3.39,6.86-5.92,4.13-.81-.87-.88-2.68-1.45-3.14-.51-.42-3.28-1.54-3.73-.86Z"/>
      <path class="cls-2" d="m160.4,249.51c1.65.58,2.85.65,4.36-.35s1.59-3.3,3.49-3.67c5.06-.99,6.7,5.41,2.07,6.77l.17,29.5c3.38,1.66,2.58,6.84-1.42,7.04-1.49.07-2.4-1.51-3.85-1.15-5.7,2.94-11.82,4.89-17.67,7.47-4.17,1.84-16.13,6.81-19.12,9.1-1.87,1.44-2.01,5.06-5.91,3.56-4.26-1.65-.9-5.29-.63-7.41,1.04-8.09-.63-18.81-.25-27.12-2.71-1.67-2.95-5.89.31-6.88,2.55-.78,3.53,1.79,6.36-.79.94-.86.79-1.73,1.41-2.62.69-1,1.93-1.1,2.04-2.01l-.3-136.47c-3.76-1.91-4.9,3.35-7.62,3.63s-4.48-2.43-3.67-5.06c.24-.77,1.21-1.09,1.47-1.66.62-1.34.56-28.18,0-29.55s-1.6-1.25-1.09-3.81c.64-3.24,4.4-2.56,6.71-1.76,12.37-5.65,24.63-11.85,37.19-17.06,8.7-3.6,21.41-6.85,29.23-11.09,1.76-.95,2.27-3.75,5.27-2.85s2.18,4.15,3.36,6.07c.85,1.37,12.13,12.87,13.78,14.23,1.05.87,2.89-.76,4.8,1.68,1.8,2.3.79,4.34-1.57,5.61v64.06c2.23,1.25,3.98,3.33,2.23,5.82-1.55,2.19-4.14.85-5.07,1.42-.2.13-2.19,4.01-2.22,4.25-.1.97,1.2,1.98,1.21,3.06,0,1.31-1.5,2.36.28,3.81,1.61,1.31,4.47-.82,5.98,2.08,1.36,2.63-.21,4.22-2.4,5.54l-.25,53.01c1.26.47,2.6,2.14,3.77,2.09,2.89-.12,2.97-2.16,4.42-2.8,3.69-1.61,6.62,2.05,4.77,5.22-.53.9-1.67,1.13-1.97,1.62-1.39,2.27.61,22.5-.25,26.68.29,2.16,4.39,3.77,1.38,7.15-2.51,2.82-4.57-.2-5.98-.13-2.12.1-9.59,3.05-12.18,3.91-6.49,2.15-22.35,6.68-27.42,9.76-1.38.84-1.24,2.17-2.37,3-3.12,2.3-7.3-1.51-5.32-4.87.53-.9,1.67-1.13,1.96-1.62,1.41-2.3-.61-23.29.23-27.56-1.6-1.9-3.24-3.44-1.55-6.01s4.08-.72,6.21-.92c2.85-.26,3.43-3.02,5.11-4.79v-41.93s-1.73-1.47-1.73-1.47l-23.15,9.11c-1.45.71-1.05,2.45-2.11,3.72-.85,1.01-2.49,1.18-2.49,1.32v42.11Zm7.62,32.26v-29.34c0-.1-.9-.99-1.19-1.05l-3.22.9c-.13,3.22-3.28,5.68-6.14,3.52-3.16-2.38,0-4.8.27-7.37-1.27-12.87,1.59-28.76,0-41.26-.23-1.77-1.81-2.2-1.18-4.25,1.24-4.04,4.63-1.88,6.98-2.43,4.21-.99,20.96-7.71,24.6-9.91.87-.53,1.43-1.67,2.39-2.09,4.48-1.95,7.41,4.9,2.35,6.83l-.23,40.55c.3,1.53,4.4,2.68,1.8,6.28-2.26,3.13-4.21.54-6.02.66-.33.02-2.74.95-2.95,1.12-.86.73-.43,3.68-3.16,4.1l.12,28.28,2.6.83,39.3-13.58,2.84-3.93-.13-28.14c-.69-1.28-1.25-1.68-2.69-1.57-2.79.22-1.6,3.82-5.94,3.52-4.26-.3-3.02-4.81-1.56-7.4l-.03-52.87c-1.96-1.72-1.33-4.29-2.21-5.86-1.53-2.75-6.79-1.7-6.7-5.81.07-2.92,2.68-2.81,3.99-4.01,3.25-2.97,2.46-7.61,4.91-10.77v-63.15c-1.7-2.38-2.77-3.3-1.99-6.49-2.75-1.94-13.15-14.4-15.25-14.79s-3.27.56-5.01-1.73c-22.81,7.61-44.63,17.96-66.61,27.66-.24,2.84-2.06,3.33-3.41,5.2l.07,27.26,2.3,2.04c3.63-.76,1.31-4.95,5.92-4.92,4.13.02,4.61,5.69.89,7.21l-.16,136.57c3.76.75,3.55,6.17-.07,7.04-1.91.46-2.82-1.13-3.73-1.07-.16.01-2.82,1.2-2.91,1.34-.46.74-.23,3.66-2.23,4.71l-.11,27.16c.03.14,2.34,1.45,2.48,1.47,1.2.13,11.68-5.65,13.81-6.62,6.78-3.1,13.67-6.02,20.47-9.1,1-.45,3.15-.77,3.71-1.11.45-.28.57-1.68,1.2-2.49.66-.85,1.75-1.01,1.8-1.1Z"/>
      <path class="cls-2" d="m335.87,21.63c3.18,2.91-.95,5.19-1.23,7.22v52.91c.33,2.51,4.41,3.3,2.02,6.9-2.07,3.11-4.2.68-6.15.61-1.31-.05-18,3.01-19.73,3.52-.85.25-.94,1.25-1.54,1.72-3.43,2.71-7.39-.84-5.7-4.49.3-.65,1.54-1.02,1.55-2.03l.02-19.16-2.92-2.55c-1.12,1.54-1.57,2.96-3.37,3.9l-.02,135.15c2.3.73,2.77,3.14,5.38,1.37.81-.55.98-1.66,1.92-2.11,3.15-1.5,6.2,1.3,5.18,4.73-.39,1.31-2.04,1.22-2.18,2.32v27.8c.14,1.1,1.79,1.01,2.18,2.32.92,3.08-1.39,5.8-4.5,4.96-.59-.16-1.08-.87-1.66-1.05-1.75-.56-20.43,3.72-23.77,4.51-3.89.92-13.83,2.85-16.84,4.22-1.32.6-1.79,2.48-2.87,2.95-2.92,1.24-6.13-1.21-5.19-4.26.25-.8,1.16-1.27,1.37-1.79.53-1.3.59-25.3.27-28.01-.19-1.63-.91-1.14-1.52-2.11-1.1-1.75-.96-3.21.57-4.6,2.65-2.41,3.51-.2,5.61-.18,2.68.02,5.42-2.22,6.08-4.7V76.9c-1.75-1.02-1.64-2.72-4.05-2.1.48,2.93-1.44,3.5-3.06,5.23.55,5.31-1.03,13.3-.07,18.27.28,1.47,4.93,5.05.69,7.42-2.5,1.4-3.43-.25-4.98-.47-1.31-.18-16.94,4.44-18.82,5.33s-3.38,5.31-6.88,2.03c-2.78-2.6.61-4.85.88-7.13v-54.24c-.28-2.18-2.76-2.16-1.6-5.61,1.05-3.14,4.88-1.54,7.08-1.87,3.16-.47,6.62-2.39,9.74-3.26,22.72-6.37,46.19-11.24,69.36-15.76,3.51-.68,9.22-.98,12.3-2.04,1.71-.59,3.24-4.04,6.46-1.1Zm-5.77,3.99c-.51-.31-5.32.27-6.35.41-23.93,3.12-52.96,10.57-76.08,17.55-1.33.4-9.4,2.22-9.71,2.61-.13.16-.05,1.82-.56,2.8-.59,1.14-2.31,1.64-2.56,2.37l.15,54.8,2.45,2.01,19.2-5.23c-.2-1.96,2.06-2.91,2.54-3.96.41-.89.5-17.21.26-19.06-.26-1.96-3.6-3.98-.94-6.71,2.19-2.25,4.5.07,6.83-.77s3.6-4.38,7.06-1.89c3.9,2.8-1.08,5.49-1.36,7.58l.25,134.64c4.73,1.9,1.74,8.35-2.49,6.98-.95-.31-1.49-1.51-2.44-1.6-3.38-.33-2.68,1.41-3.79,2.93-.57.78-1.94,1.14-2.18,1.85l-.08,26.81,3.02,2.38c4.98-.67,9.86-2.65,14.81-3.82,8.37-1.99,16.89-3.34,25.29-5.17l3.39-3.78.02-28.31-2.74-1.77c-2.83-.09-4.76,6.15-8.42,2.4-2.36-2.41.29-4.76.49-7.17V70.07c-1.7-1.52-2.85-4.6-.79-6.34,2.64-2.23,4.33.5,6.32.32s2.16-2.27,4.52-2.29c1.98-.01,3.47,1.06,3.73,3.08.4,3.06-2.77,3.27-3.06,4.8-.43,2.25-.36,14.58-.02,17.05.25,1.85,3.21,3.89,5.11,3.75,2.85-.21,6-1.59,8.63-2.15,1.77-.38,8.43-.92,9.13-1.62.84-.83.64-2.84,2.46-3.36V27.76c-1.05-.15-1.89-2.02-2.1-2.14Z"/>
      <path class="cls-2" d="m100.46,277.19c1.21.51,2.16,1.03,3.49.79,2.38-.42,1.62-2.34,3.11-3.64,4.51-3.91,9.03,4.52,3.23,6.14l-.1,29.67c4.92,1.48,2.9,8.49-2.24,6.8-.83-.27-1.52-1.52-2.23-1.41-.91.14-3.1,2.01-4.16,2.58-9.61,5.14-19.19,10.19-28.52,15.85-1.14.76-.37,1.98-1.15,3.3-2.45,4.12-8.93.54-5.95-4.17.37-.59,1.33-.53,1.31-1.38v-26.91c-.11-.88-2.74-1.65-2.5-4.3.39-4.32,5.09-2.57,6.5-4.2.66-.76.37-1.9.78-2.8.44-.97,1.43-1.11,1.48-2.55.02-.62-1.32-8.83-1.58-9.22-.12-.18-2.41-1.3-2.73-1.33-2.59-.26-15.59,9.51-18.39,11.4,1.02,3.01-1.04,4.09-3.25,5.46l-1.85,14.94c2.55.03,1.96-2.2,2.92-3.58,2.64-3.8,8.79.57,5.53,4.64-.75.94-2.09,1.09-2.41,1.62-.72,1.18-.53,24.74-.22,27.57s4.44,3.61,2.19,7.12c-2.05,3.21-5.43.27-6.23.5-1.93.56-6.41,4.36-8.18,5.72-2.49,1.7-5.18,3.14-7.64,4.87s-13.56,9.12-14.63,10.46c-.75.94-.55,2.27-1.17,3.31-1.34,2.27-4.37,2.18-5.95.2-2.11-2.64.54-3.94.85-6.19.34-2.43.3-25.03-.25-26.22-.66-1.42-2.16-1.13-1.55-4.25.48-2.43,3.02-2.06,4.44-2.73.32-.15,3.72-2.69,3.85-2.89.43-.69-.27-4.4,2.9-5.24,8.45-63.52,17.22-127.01,26.32-190.41-.03-1.2-2.6-1.76-1.59-5.18s4.52-1.42,6.03-1.99c1.7-.64,3.47-2.61,4.99-3.55,3.26-2.01,10.29-5.21,12.77-7.29.62-.52.48-2.18,1.39-3.2,2.17-2.42,6.02-.83,6.3,2.22.16,1.76-1.53,2.83-1.6,4.31s.75,5.27,1.01,7.1c2.98,21.39,7.21,42.8,10.74,64.08,4.63,27.98,9.34,55.97,13.92,83.96Zm-51.16,67.29v-30.91c-3.06,0-1.86,1-2.34,2.8-1.27,4.73-7.67,3.57-7.06-1.2.35-2.73,3.19-2.81,3.51-3.69.12-4.36,1.79-9.63,1.88-13.84.05-2.35-3.22-4.85-.18-7.3,1.96-1.58,3-.2,4.61-.74.94-.32,2.09-1.8,3.02-2.39,3.94-2.48,11.98-6.27,14.95-9.24,1.06-1.07,1.2-2.56,2.54-3.28,1.7-.91,3.12-.62,4.4.78,2.57,2.8-.16,3.86-.28,6.06-.04.77,1.21,8.56,1.48,9.31.52,1.42,3.07,1.46,3.06,4.13-.01,3.28-3.41,4.96-6.08,3.03-1.82.87-.49,2.22-.95,3.83-.34,1.19-1.96,2.39-1.96,2.56v27.33l1.1.67c1.29.02,10.51-6.13,12.49-7.25,6.16-3.46,16.24-7.75,21.52-11.64.39-.29,2.98-3.07,2.98-3.29v-29.57c0-.67-1.34-1.18-2.22-.89-2.05.69-1.46,2.56-2.5,3.79-2.07,2.42-6.08,1.01-6.39-2.11-.17-1.73,1.42-2.64,1.24-4.31-8.05-49.9-16.87-99.47-25.01-149.31-.51-3.14.53-6.96-3.65-7.15l-17.38,10.67c.81,3.41-2.27,4.02-3.15,5.59-.43.78-.76,2.98-.93,4-3.33,20.45-5.36,41.19-8.18,61.71-5.2,37.95-10.94,75.78-15.68,113.79-.27,2.16-2.12,10.19-1.51,11.47.76,1.61,3.21,2.32,1.13,5.17-1.9,2.6-3.47.88-5.06,1.19-.17.03-2.73,1.67-2.89,1.84-.98,1.09.24,1.79.32,2.81.14,1.77-1.61,2.94-2.91,3.78l-.23,25.32c.12,1.19,1.5,1.3,2.5,1.54,7.58-5.19,14.92-10.77,22.45-16.03,1.29-.9,8.71-5.12,9.01-5.55s.1-1.65.77-2.59c.56-.79,1.52-.81,1.56-.89Z"/>
      <path class="cls-2" d="m554.94,18.04c1.67,1.83.54,3,.57,4.58.03,2.34,14.4,20.26,16.12,24.09,2.15.66,4.59.96,4.87,3.77.2,2.02-1.5,2.65-1.72,4.35v151.47c-.18,2.13,2.13,2.47,1.74,4.78-.61,3.64-3.37,2.4-5.11,3.44-.29.17-3.82,4.23-4.45,4.96-1.56,1.78-11.75,13.44-12.07,14.32-.37,1.01,1.07,2.76-.9,4.51-2.76,2.45-5.09-.03-6.81-2.17-15.26-1.28-30.59-3.39-45.83-3.88-2.07,3.09-6.98,1.51-6.72-2.22.05-.76.84-1.38.66-2.04-.13-.45-4.66-6.56-5.41-7.58-1.53-2.08-10.12-14.01-11.07-14.69-1.43-1.01-4.27-.34-4.71-3.6-.28-2.08,1.9-2.88,1.73-4.8V46.32c.02-1.89-1.59-2.71-1.2-4.69.54-2.71,2.16-2.13,3.65-3.11,2.62-1.71,10.15-12.65,12.76-15.91.84-1.05,4.53-4.78,4.69-5.55.34-1.64-1.01-2.69,1.34-4.54,3.45-2.72,4.76,1.52,6.27,1.8,10.15.79,20.34,1.3,30.47,2.24,4.35.4,10.23,1.87,14.35,1.84,2.19-.02,4.33-3.05,6.79-.35Zm-6.24,3.11c-.64-.62-14.95-2.14-17.14-2.35-9.49-.93-19.08-1.18-28.57-2.17-2.05,2.63-3.65,1.83-6.37,2.62-1.52,2.76-15.92,19.01-15.83,20.3.03.46.69,1.15.8,1.9.67,4.63-3.43,4.3-3.59,4.97v150.91c.19,1.28,1.66,1.04,2.52,1.97,2.34,2.51-.27,4.91-.06,5.41.5,1.15,3.48,4.08,4.46,5.42,2.47,3.35,9.17,14.06,11.69,16.08.91.73,2.11.33,3.24.79,1.27.52,1.44,1.74,2.03,2.22.68.55,6.63.96,8.14,1.05,12.44.7,24.83,1.86,37.23,3.59,2.33-.84,3.18-2.55,6.05-1.6,3.25-3.48,6.06-7.38,9.15-10.98,1.26-1.46,6.7-6.52,7.19-7.63.44-1-.65-2.92-.15-4.59.37-1.24,2.23-1.56,2.52-2.4l.09-152.17c-3.84-1.39-2.38-3.81-2.48-6.99-5.51-6.55-9.78-15.57-15.27-21.94-1.71-1.99-2.66-.95-4.21-2.06-1.02-.73-.98-1.88-1.46-2.35Z"/>
      <path class="cls-2" d="m901.05,319.28c-1.85-1.97.68-3.9.68-4.13,0-.37-1.18-.97-.72-2.6.79-2.75,5.81-2.04,5.3,1.21-.09.58-.75,1.11-.76,1.38,0,.55,1.54,1.22,1.02,2.91-.71,2.31-3.97,2.87-5.53,1.22Zm1.94-7.46c-1.33.44-1.1,3.83,1.25,3.06,1.33-.44,1.1-3.83-1.25-3.06Zm-.43,4.04c-1.71.57-.57,4.59,1.95,3.32,1.98-.99.58-4.17-1.95-3.32Z"/>
      <path class="cls-2" d="m396.16,181.97c.82-.81,3.96-.94,4.59.34.94,1.9-.57,2.92-.57,3.37,0,.38,1.32.81,1.25,2.19-.2,4.05-7.37,2.94-6.21-.76.19-.62,1.13-1.05,1.16-1.43.04-.53-1.66-2.28-.23-3.71Zm1.96-.08c-1.7.93-1.61,3.05.34,3.53,1.7-.93,1.61-3.05-.34-3.53Zm.02,4.11c-1.93.16-2.47,3.12-.51,3.49,3.69.69,2.96-3.69.51-3.49Z"/>
      <path class="cls-2" d="m174.17,253.16c3.67-.56,2.33,3.36,2.5,4.56.06.39.66.86.75,1.45.7,4.25-5.66,4.45-6.04,1.15-.15-1.31.91-1.9,1.02-2.61.13-.76-.91-1.28-.63-2.39.22-.85,1.52-2.02,2.39-2.16Zm1.41,3.9c.85-.53.24-3.89-1.74-2.87-2.21,1.14-.18,4.07,1.74,2.87Zm-2.51,1.52c-2.52,2.53,3.62,4.95,3.03,1.03-.23-1.53-1.97-2.09-3.03-1.03Z"/>
      <path class="cls-2" d="m559.45,9.02c2.1-.43,3.63.55,3.25,2.81-.1.61-.78,1.17-.79,1.38,0,.32,1.11.84,1.26,1.8.58,3.85-5.26,4.53-6.2.8-.16-.92,1.06-1.62,1.17-2.25.13-.78-2.24-3.81,1.31-4.55Zm-.05.85c-1.6.52-.44,3.57,1.23,3.07,1.79-.53,1.16-3.84-1.23-3.07Zm.04,4.08c-1.47.44-1.68,2.6-.32,3.29,2.98,1.5,4.16-4.45.32-3.29Z"/>
      <path class="cls-2" d="m399.52,3.22c1.48,1.47-.35,3.07-.27,3.62.07.5,1.07,1.11,1.17,1.93.43,3.49-5.72,3.96-6.17.81-.25-1.75,1.26-2.27,1.25-2.65,0-.46-1.51-1.48-.57-3.37.64-1.28,3.78-1.15,4.59-.34Zm-3.41,2.96l1.44.43c1.51-.69,1.64-2.34.28-3.29l-1.72.32v2.55Zm2.51,1.53c-1.04-1.04-2.79-.52-3.03,1.03-.61,3.94,5.79,1.73,3.03-1.03Z"/>
      <path class="cls-2" d="m767.32,124.6c1.43-.28,3.49.39,3.61,2.01.06.8-.82,1.38-.79,2.17.02.59.75,1.13.88,1.82.73,4.04-5.38,4.03-5.83,1.29-.27-1.7.81-2.21.86-3.09.08-1.44-1.6-3.63,1.28-4.2Zm1.84.88c-2.06-1.27-3.67,1.85-1.72,2.86,1.98,1.03,2.78-2.21,1.72-2.86Zm.41,6.98c1.4-1.6-.99-4.38-2.82-2.58-1.98,1.96,1.37,4.23,2.82,2.58Z"/>
      <path class="cls-2" d="m638.29,22c1.25-.19,3.09,1.27,3.17,2.46.05.75-.68,1.26-.73,1.79s.7,1.09.82,1.75c.78,4.53-6.57,4.58-5.81,0,.1-.59.7-1.06.75-1.45.19-1.34-1.36-4.07,1.8-4.56Zm1.4,3.89c1.07-.66.26-3.89-1.72-2.86s-.34,4.13,1.72,2.86Zm.41,1.53c-1.45-1.65-4.8.62-2.82,2.58,1.82,1.8,4.22-.97,2.82-2.58Z"/>
      <path class="cls-2" d="m257.05,259.45c2.1-.44,3.63.54,3.25,2.81-.1.61-.78,1.17-.79,1.38,0,.32,1.11.84,1.26,1.8.66,4.34-6.35,4.16-6.12.41.05-.76.97-1.29,1.07-1.86.18-1.09-1.93-3.87,1.33-4.55Zm-.05.85c-1.55.5-.55,3.49,1.2,3.05,2.15-.54,1.03-3.77-1.2-3.05Zm2.34,7.07c1.51-2.38-2.15-4.53-3.32-2.17s2.59,3.31,3.32,2.17Z"/>
      <path class="cls-2" d="m230.15,173.89c1.39-.42,3.71,0,4.11,1.57.25.99-.7,1.58-.76,2.22-.05.54.7,1.09.82,1.75.71,4.13-5.08,4.06-5.74,2.14s.66-2.84.7-3.86c.04-1.07-1.18-3.19.88-3.82Zm.25,3.39c1.5,1.56,4.02-1.62,1.69-2.82-1.72-.89-2.75,1.72-1.69,2.82Zm-.45,1.56c-1.49,1.45.8,4.34,2.81,2.58,1.76-1.55-1.12-4.23-2.81-2.58Z"/>
      <path class="cls-2" d="m573.9,218.59c8.59-2.5,4.39,9.68-.01,4.72-1.88-2.12-1.26-8.35,2.48-8.33,1.22,0,3.1,1.62,1.78,2.71-1.7-3.08-3.51-1.94-4.26.9Zm3.47,1.02c-.34-.4-1.27-.57-1.81-.5-1.56.37-1.72,3.52-.31,4.21,2.36,1.05,3.19-2.48,2.12-3.71Z"/>
      <path class="cls-2" d="m60.05,318.05c-1.17.33-1.05-1.22-1.65-1.36-1.91-.45-2.91.89-2.82,2.7,6.81-2.68,6.04,7.66.45,5.14-2.58-1.16-2.18-7.67.42-8.53,1.81-.6,3.79-.21,3.61,2.04Zm-1.45,5.72c1.43-1.48.25-4.91-2.13-3.71s.06,5.85,2.13,3.71Z"/>
      <path class="cls-2" d="m239.69,217.7l-1.64-1.82c-1.56-.34-2.79,1.32-2.84,2.71,6.43-2.59,6.2,6.82,1.23,5.72-2.5-.56-2.39-3.87-2.14-5.95.46-3.87,5.44-4.84,5.38-.66Zm-3.92,5.26c2.32,2.33,4.46-2.56,2.12-3.72-2.16-1.07-3.55,2.28-2.12,3.72Z"/>
      <path class="cls-2" d="m899.59,232.04c.94-.89,1.6,1.3,2.46,1.38,1.67.16,1.99-1.55,2.46-2.72-7.1,2.83-5.97-7.8-.45-5.15,1.95.93,1.66,6.03.45,7.62-2.24,2.96-5.64-.45-4.93-1.12Zm2.55-6.23c-1.92.48-1.94,5.62,1.2,4.38,1.44-.48.99-4.93-1.2-4.38Z"/>
      <path class="cls-2" d="m755.78,154.98c-.94.89-1.6-1.3-2.46-1.38-1.67-.16-1.99,1.55-2.46,2.72,7.1-2.83,5.98,7.8.45,5.15-2.26-1.08-2.28-9.55,2.45-8.74.78.13,2.56,1.74,2.04,2.24Zm-3.75,1.85c-1.17.39-.99,3.27-.1,4.02,1.92,1.63,3.86-2.28,2.07-3.87l-1.98-.15Z"/>
      <path class="cls-2" d="m127.25,311.78c-1.38.32-.91-1.44-2.09-1.75-1.42-.37-2.54,1.89-2.38,3.09,6.08-2.89,6.55,6.36,1.22,5.3-3.98-.79-2.71-9.86,1.14-9.26,1.08.17,2.43,1.37,2.11,2.61Zm-2.84,1.42c-2.16.4-2.13,4.67.36,4.42s1.98-4.86-.36-4.42Z"/>
      <path class="cls-2" d="m336.01,12.52c-1.28.22-1.07-1.43-2.18-1.59-1.47-.2-2.47,1.68-2.29,2.93,6.79-2.68,6.06,7.65.45,5.14-2.51-1.12-1.96-7.95.3-8.64,1.72-.52,3.99-.04,3.72,2.15Zm-1.4,1.85c-5.01-1.1-2.95,5.85-.25,4,1.08-.74.83-2.94.25-4Z"/>
      <path class="cls-2" d="m771.91,250.85c-1.28.22-1.07-1.43-2.18-1.59-1.47-.2-2.47,1.68-2.29,2.93,6.81-2.69,5.74,7.56.45,5.15-2.82-1.29-2-7.94.3-8.64,1.72-.53,3.99-.04,3.72,2.15Zm-1.45,5.72c1.43-1.48.25-4.91-2.13-3.71s.06,5.85,2.13,3.71Z"/>
      <path class="cls-2" d="m85.58,108.84c-1.44.31-.94-1.8-2.46-1.81-1.17,0-2.18,2.09-2.01,3.15,6.8-2.96,5.85,7.55.45,5.14-2.79-1.24-1.94-9.7,1.91-9.1,1.08.17,2.43,1.37,2.11,2.61Zm-1.45,1.91c-1.85-1.93-4.54,2.49-2.13,3.71s3.58-2.19,2.13-3.71Z"/>
      <path class="cls-2" d="m310.93,253.54c1.28-.26,1.25,1.5,2.08,1.75,1.49.44,2.65-1.26,2.39-2.64-5.7,2.37-6.06-6.61-1.23-5.76,4.21.74,2.83,10.05-1.13,9.27-1.12-.22-2.4-1.33-2.12-2.62Zm1.45-1.91c2.3,2.32,4.47-2.53,2.13-3.7s-3.45,2.38-2.13,3.7Z"/>
      <path class="cls-2" d="m470.41,182.31c-1.85.48-1.15-1.53-2.89-1.36-1.25.12-2.92,2.96-1.44,2.64,6.91-1.49,4.57,7.3.43,5.57-4.94-2.07-.3-14.34,3.9-6.84Zm-3.73,1.86c-3.7,1.24,2.68,8.89,2.33.67-.3-.9-1.57-.92-2.33-.67Z"/>
      <path class="cls-2" d="m669.77,267.87c-1.3.17-1.03-1.35-2.21-1.61-2.14-.46-2.05,1.57-2.72,2.95,7.34-2.93,5.76,7.39.9,5.15s.54-14.62,4.02-6.5Zm-3.97,5.77c1.89.57,3.45-.68,2.9-2.63-1.03-3.67-5.04-.65-2.9,2.63Z"/>
      <path class="cls-2" d="m468.06,54.3c1.59,1.49,1.41,7.17-.79,8.16-1.84.83-3.99.27-4.02-2,1.64-.47,1.3.86,1.98,1.38,1.64,1.24,2.84-1.23,2.49-2.73-2.86,1.5-5.29-.63-4.38-3.71.52-1.77,3.47-2.26,4.72-1.1Zm-2.72.39c-2.22.74-.92,5.35,1.97,3.77l.22-3.42c-.4-.57-1.59-.56-2.19-.36Z"/>
      <path class="cls-2" d="m697.99,102.13c1.95-.43,1.22,1.67,2.88,1.35,1.39-.27,2.94-2.92,1.4-2.68-1.13.18-1.51.72-2.82.11-3.06-1.43-.87-7,2.45-5.62,4.83,2.02.52,14.22-3.9,6.84Zm4.37-5.72c-2.3-2.32-4.47,2.53-2.13,3.7s3.45-2.38,2.13-3.7Z"/>
      <path class="cls-2" d="m348.44,242.01c.46.39.57,1.51.56,2.12-1.26.34-.88-.88-1.52-1.37-1.69-1.31-3.05,1.16-2.95,2.72,6.42-2.94,6.4,6.99.87,5.19-4.04-1.32-1.28-12.31,3.04-8.65Zm-2.29,3.54c-2.56,1.29-1.72,5.35,1.23,4.36,1.45-.48,1.06-4.63-1.23-4.36Z"/>
      <path class="cls-2" d="m812.23,327.01c-1.3.18-1.21-1.73-2.53-1.71s-2.24,1.88-1.94,3.05c6.58-2.86,5.49,7.45.45,5.14-2.68-1.23-2.33-7.84.31-8.63,1.92-.57,3.63-.02,3.71,2.14Zm-3.97,5.77c3.54,1.12,4.32-3.99,1.06-4.01-2.32-.01-1.68,2.45-1.06,4.01Z"/>
      <path class="cls-2" d="m709.53,210.86c-.98.92-3.83.66-4.35-.57-1.01-2.38,1.65-.05,1.78.02,1.87.88,2.73-.79,2.68-2.46-6.33,2.4-5.9-7.23-.88-5.64,2.73.86,2.48,7.04.77,8.66Zm-2.28-7.89c-1.76.57-1.74,5.18,1.18,4.37,2.17-.6,1.31-5.17-1.18-4.37Z"/>
      <path class="cls-2" d="m235.1,153.08c-4.3,4.6-7.39-7.02-3.16-8.31,4.48-1.37,5.18,6.15,3.16,8.31Zm-.89-.45c.94-1.67,1.35-8.1-1.85-7.02-1.53.52-1.77,6.47.17,7.38l1.67-.36Z"/>
      <path class="cls-2" d="m704.59,40.83c5.03-1.07,4.84,9.3.79,9.3s-4.1-8.59-.79-9.3Zm-.29.86c-1.14.8-1.52,7.59,1.08,7.59,2.04,0,1.81-4.71,1.56-6.05-.22-1.18-1.76-2.15-2.63-1.54Z"/>
      <path class="cls-2" d="m868.13,285.01c1.16,2.24,1.43,4.64.19,6.92-1.85,3.41-6.16.53-5.01-.76,1.13-.25,1.05.95,1.66,1.36,1.64,1.1,3.13-1.07,2.81-2.71-6.43,2.73-6.09-8.03.35-4.82Zm-.85,4.31l.44-3.22c-3.39-3.6-5.67,4.24-.44,3.22Z"/>
      <path class="cls-2" d="m806.74,179.25c4.77-.86,4.08,9.02.77,9.35-4.25.43-4.73-8.64-.77-9.35Zm1.42.87c-3.07-2.16-3.9,7.58-1.08,7.59,2.6,0,2.22-6.78,1.08-7.59Z"/>
      <path class="cls-2" d="m319.78,194.52c2.93,3.17-.89,11.92-4.38,7.29-2.9-3.85,1-10.95,4.38-7.29Zm-3.36.45c-3.22,10.97,6.78,7.77,1.67-.36l-1.67.36Z"/>
      <path class="cls-2" d="m467.61.05c4.68-.84,4.86,9.08.75,9.33s-4.33-8.68-.75-9.33Zm-.04.88c-1.67.54-1.53,5.84-.53,7.13,3.33,3.35,4.5-8.41.53-7.13Z"/>
      <path class="cls-2" d="m399.06,146.1c4.24-.65,4.46,8.83.77,9.35-4.74.67-4.41-8.79-.77-9.35Zm-.03.87c-2.11.56-2.29,7.41-.07,7.6,3.21.28,2.58-8.27.07-7.6Z"/>
      <path class="cls-2" d="m393.36,64.94c.18.16,6.25-.45,4.48.9h-5.82c-.62-3.11,2.58-3.32,3.84-4.89,2.48-3.1-2.45-5.02-2.49-1.23l-1.35.3c-.12-4.67,7.09-3.94,5.73.58-.54,1.8-4.27,2.26-4.39,4.35Z"/>
      <path class="cls-2" d="m905.08,151.73c-1.95-1.82-1.76-9.81,3.16-8.31,2.38.73,2.36,8.08,0,8.79-.82.25-2.53.1-3.16-.49Zm.84-.39c4.14,1.6,3.66-7.02,1.45-7.48-2.68-.55-2.2,5.93-1.45,7.48Z"/>
      <path class="cls-2" d="m409.94,9.83l4.48.22c-.79,1.14-6.22.91-6.26,0,.38-2.67,4.62-3.42,4.92-5.4.44-2.87-3.55-2.8-3.15-.08l-1.33.32c-.21-4.8,7.12-3.9,5.63.48-.65,1.91-4.08,2.17-4.29,4.45Z"/>
      <path class="cls-2" d="m886.94,276.05c1.52,1.53-.24,3.34-.24,3.71,0,.32.98.81,1.17,1.43,1.24,3.95-6.46,5.29-6.2.58,1.6.28,2.67,3.95,4.52,1.61s-.64-2.89-2.28-3.63l2.05-.64c.42-1.05.44-2.64-.94-2.75l-1.12.24-1.11,2.03c-1.04.23-.78-.96-.58-1.48.68-1.78,3.54-2.3,4.73-1.11Z"/>
      <path class="cls-2" d="m710.41,252.29c5-1.48,4.78,8.25,1.68,8.86-5.17,1.02-4.57-8.01-1.68-8.86Zm-.21,7.86c3.22,3.34,4.64-9.02.33-6.84-1.34.68-1.21,5.93-.33,6.84Z"/>
      <path class="cls-2" d="m472.66,214.12c1.49-.21.94,1.52,1.9,1.95,3.2,1.43,4.53-3.73.34-3.3-.29-1.48,1.43-.62,2.03-1.78,1.45-2.77-3.63-3.48-2.93,0-.54-.09-1.49.48-1.35-.67.43-3.52,5.86-3.05,5.65,0-.04.51-.62,1-.63,1.4-.02.58.75,1.21.85,2.16.47,4.33-6.26,4.51-5.86.23Z"/>
      <path class="cls-2" d="m414.41,64.49l4.93.23c-.8,1.13-6.18.93-6.25,0-.2-2.61,6.77-3.96,4.5-6.77-2.03-2.51-2.53,1.44-4.07,1.61-.47-4.54,6.96-3.91,5.64.46-.6,1.97-3.92,2.37-4.74,4.46Z"/>
      <path class="cls-2" d="m814.47,271.47c-.32,1.62-3.93.42-4.04,1.15v2.43c3.39-1.86,6.31,2.98,3.12,5.12-1.84,1.24-4.83.44-4.9-1.98,1.83-.53,1.3,1.63,2.9,1.77,2.3.2,2.82-3.84.81-4.39-1.4-.39-2.04.83-3.26.83l.44-4.93h4.93Z"/>
      <path class="cls-2" d="m.02,340.9c1.53-.31.84,1.81,2.09,2.19,3.04.93,4.22-4.03.14-3.54-.28-1.47,1.43-.64,2.04-1.78.33-.61.26-1.11-.21-1.61-1.7-1.44-3.03-.54-2.73,1.61-.54-.09-1.49.48-1.35-.67.39-3.2,5.36-3.27,5.43-.46.02.75-.45,1.53-.36,2.17.06.43.7.95.8,1.86.47,4.46-6.22,4.51-5.86.23Z"/>
      <path class="cls-2" d="m809.54,154.98c-.51-3.37,6.65-4.23,4.44-7.35-1.27-1.78-3.42.08-3.1,1.97-1.87.12-1.15-1.8-.24-2.71,2.05-2.05,5.53-.02,4.88,2.62-.55,2.25-3.67,2.5-4.63,4.56,1.5.26,4.06-.74,4.93.9h-6.27Z"/>
      <path class="cls-2" d="m114.26,323.42c2.93.97,1.18,5.13-1.99,4.92-1.47-.1-3.83-2.57-2.26-3.12,1.13-.39.53,2.03,2.24,2.25,3.2.41,3.01-4.3-.23-3.6-.28-1.52,1.83-.62,2.2-2.1.16-.65-.13-1.12-.59-1.52l-1.78-.38-2.06,2.21c.2-5.44,8.07-3.34,4.48,1.34Z"/>
      <path class="cls-2" d="m199.97,52.09c-.18.19-.65,1.16-.6,1.2l4.93.23c-.8,1.13-6.19.93-6.25,0-.21-2.85,6.4-3.5,4.72-6.98l-2.51-.21-1.77,2.03c-.61-3.46,4.69-4.52,5.64-1.35s-2.69,3.52-4.15,5.08Z"/>
      <path class="cls-2" d="m798.79,187.24c.18.16,6.25-.45,4.48.9h-5.82c-.69-3.24,4.37-3.64,4.53-6.04.2-3.19-3.21-2.46-3.22.19l-1.31.03c-.18-4.67,7.06-3.82,5.73.58-.61,2.01-4.2,2.23-4.39,4.35Z"/>
      <path class="cls-2" d="m169.03,217.58c-1.97-1.85-1.72-9.77,3.16-8.32,2.38.71,2.37,8.09,0,8.8-.82.25-2.53.1-3.16-.49Zm.89-.43c3.94,1.91,3.69-6.96,1.4-7.44-2.64-.54-2.28,5.93-1.4,7.44Z"/>
      <path class="cls-2" d="m710.54,81.06l4.92.22c-.81,1.1-6.08.97-6.27,0-.43-2.17,4.74-3.48,4.94-5.38.17-1.72-1.19-2.8-2.71-1.79-.64.42-.3,2.28-1.77,2.03-.14-5.93,8.72-2.48,4.89,1.54-.39.41-4.82,2.67-4,3.39Z"/>
      <path class="cls-2" d="m112.47,135.27c-.2-2.49,4.52-4.22,4.87-5.23,1.01-2.96-2.83-4.1-3.52-.36l-.9-.47c-.04-3.57,5.34-3.8,5.83-.4.4,2.77-3.76,3.54-4.93,5.55,1.37.13,2.94-.17,4.26,0,.82.1.72-.15.66.9h-6.27Z"/>
      <path class="cls-2" d="m340.04,92.27c1.68,1.28-3.44.75-3.58.89v2.69c3-1.37,4.83,1.26,3.95,4.17-.76,2.49-6.07,2.09-5.73-1.03,1.2-.22,1.05,1.15,1.91,1.5,1.7.71,3.16-.28,3-2.14-.32-3.9-4.17-.83-4.46-1.16l.45-4.92h4.47Z"/>
      <path class="cls-2" d="m77.52,347.17l4.92.22c-1.64,1.36-4.29.41-6.27.67-.65-3.63,8.96-5.71,2.92-8.09l-2.47,2.27c-.84-3.39,3.88-4.24,5.29-1.92,2.19,3.63-5.69,5.69-4.39,6.85Z"/>
      <path class="cls-2" d="m262.99,112.42c.05.08.96-.29,1.24,1.22.91,4.83-5.94,5.01-5.72.58,1.65-.24.69,2.02,2.47,2.25,3.2.41,3.01-4.3-.23-3.6-.28-1.47,1.43-.64,2.05-1.78.73-1.34-.94-2.66-2.22-2.22-.93.32-.55,2.44-2.06,2.21-.36-3.93,6.11-4.4,5.37-.24-.12.66-1,1.42-.89,1.58Z"/>
      <path class="cls-2" d="m703.37,162.6c1.55-.3.66,1.44,1.9,1.95,3.31,1.34,4.43-3.72.33-3.3-.29-1.48,1.45-.63,2.05-1.79,1.32-2.56-2.92-3.45-3.62,0-.7.11-.77.02-.67-.67.44-3.22,5.37-3.25,5.43-.45.02.75-.45,1.53-.36,2.17.06.43.7.95.8,1.86.46,4.33-6.26,4.51-5.86.23Z"/>
      <path class="cls-2" d="m182.67,234.18c-.14.22-.84-.09-.76.32,4.63,4.27-3.65,7.94-4.93,2.47,2.03-.41,1.2,1.83,3.36,1.83,2.8,0,2.37-4.3-.68-3.63-.37-1.43,1.42-.62,2.05-1.78,1.13-2.09-3.36-3.71-2.95-.33l-1.33.32c-.37-2.73,3.08-4.04,4.93-2.46.59.51.7,2.66.31,3.27Z"/>
      <path class="cls-2" d="m555.08,242.34l-3.61.2c-2.02,4.24,2.21,1.22,3.64,3.58,2.49,4.12-4.24,7.05-5.85,2.5,1.23-.39,1.63.82,2.25,1.11,3,1.41,3.85-3.94,1.03-4.16-.87-.07-1.79,1.07-2.84.79l.64-4.5c.46-.66,4.39-.88,4.73.47Z"/>
      <path class="cls-2" d="m192.66,53.29l4.92.22c-.81,1.1-6.08.97-6.27,0-.49-2.46,9.01-5.41,2.93-7.41l-2.47,2.27c-.84-3.39,3.88-4.24,5.29-1.92,2.19,3.63-5.69,5.69-4.39,6.85Z"/>
      <path class="cls-2" d="m224.47,152.74l4.92.22c-.81,1.1-6.08.97-6.27,0-.49-2.46,9.01-5.41,2.93-7.41l-2.47,2.27c-.84-3.39,3.88-4.24,5.29-1.92,2.19,3.63-5.69,5.69-4.39,6.85Z"/>
      <path class="cls-2" d="m348.11,187.69c.36,1.73-2.32.51-3.3.96l-.67.67-.06,1.95c2.14-1.14,4.42-.03,4.51,2.48.13,3.69-5.63,4.76-5.86.66,1.32-.34.88,1.14,1.78,1.58,3.02,1.49,3.82-4.07,1.1-4.29l-2.44.92.06-4.19c.44-1.34,3.7-.54,4.86-.73Z"/>
      <path class="cls-2" d="m652.75,89.58l4.92.22c-.8,1.13-6.19.93-6.25,0-.17-2.33,4.65-3.64,4.92-5.4.31-2-1.03-2.43-2.72-1.79l-1.77,2.03c-.6-3.26,4.25-4.52,5.48-1.67,1.6,3.7-5.95,5.39-4.59,6.6Z"/>
      <path class="cls-2" d="m313.61,97.2c.27.28-.26,4.57,0,5.53.14.5,1.13-.07.91.96-1.43.36-.55,1.61-1.57,2.46l-.69-2.21c-.42-.43-4.43.74-4.01-.68,1.32-1.22,2.7-4.62,3.82-5.59.56-.49.77-.58,1.55-.46Zm-1.34,5.82l-.22-3.58-2.47,3.58h2.69Z"/>
      <path class="cls-2" d="m190.09,291.53c.17.24.99-.25.78.76-1.18.37-.98.86-.9,2.02h-1.34s0-1.8,0-1.8c-1.35-.13-3.07.51-4.02-.67l4.69-6.49c1.32-.01.23,5.37.79,6.17Zm-1.46.1l-.22-3.58-2.47,3.58h2.69Z"/>
      <path class="cls-2" d="m771.46,219.5c1.68,1.28-3.44.75-3.58.89v2.69c2.96-1.3,4.84,1.09,3.83,4.06-.87,2.57-5.83,2.24-5.62-.92,1.2-.22,1.05,1.15,1.91,1.5,1.7.71,3.16-.28,3-2.14-.32-3.9-4.17-.83-4.46-1.16l.45-4.92h4.47Z"/>
      <path class="cls-2" d="m61.84,346.28c.36,1.73-2.32.51-3.3.96l-.67.67-.06,1.95c2.23-.94,4.42-.16,4.51,2.48.12,3.69-5.63,4.76-5.86.66,1.32-.34.88,1.14,1.78,1.58,3.02,1.49,3.82-4.07,1.1-4.29l-2.44.92.4-4.66,4.53-.26Z"/>
      <path class="cls-2" d="m589.02,65.49c.67.67.72,2.6.33,3.47-.69,1.51-4.17,2.04-4.25,4.03.18.16,6.25-.45,4.48.9h-5.82c-.58-3.2,5-4.12,4.91-6.51-.05-1.49-2.11-2.16-3.16-.91-.27.33-.56,2.65-1.75,1.59-1.09-.97,2.89-4.96,5.27-2.58Z"/>
      <path class="cls-2" d="m411.28,186.79c1.55-.3.66,1.44,1.9,1.95,3.31,1.34,4.43-3.72.33-3.3-.29-1.48,1.45-.63,2.05-1.79,1.32-2.56-2.92-3.45-3.62,0-1.27.72-.55-2.57.99-3.04,1.4-.43,3.5-.2,3.73,1.51.13.94-.36,1.69-.34,2.31.04,1.02,1.61,2.38.56,4.16-.93,1.58-6.64,1.48-5.6-1.8Z"/>
      <path class="cls-2" d="m240.59,268.33c-.35,1.58-3.74.59-4.03.89v2.24c6.7-1.2,4.97,8.05-.44,5.59-.44-.2-1.75-1.65-1.35-2,1.13-1,1.71,1.81,2.91,1.81,2.29,0,3.2-5-.42-4.51-.99.13-1.26,1.49-2.04.22l.44-4.24h4.93Z"/>
      <path class="cls-2" d="m780.88,315.81l4.92.22c-.81,1.1-6.08.97-6.27,0-.5-2.5,6.85-3.94,4.42-7.32-.78-.2-1.79-.17-2.45.34-.84.64-.09,2.16-1.52,1.83-.5-5.84,8.86-2.79,4.49,1.59-.44.44-4.43,2.6-3.6,3.34Z"/>
      <path class="cls-2" d="m113.81,263.4c.34,2.5-1.06,5.27,1.35,6.72l-1.38.25-.63,1.99-.7-2.22c-.85-.33-3.76.68-3.57-.69.06-.42,3.27-5.48,3.57-5.75.49-.45.76-.31,1.37-.3Zm-1.34,5.83c-.25-.89.57-3.18-.44-3.58l-2.25,3.58h2.69Z"/>
      <path class="cls-2" d="m411.62,56.98c.78.78.7,3.12.13,4.06-.62,1.02-4.07,1.71-4.05,3.44.19.16,6.25-.45,4.48.9h-5.82c-.5-3.88,6.68-3.95,4.29-7.65-.87-.68-1.82-.59-2.54.24-.67.76.17,2.04-1.75,1.59.19-2.42,3.44-4.4,5.27-2.58Z"/>
      <path class="cls-2" d="m231.63,122.73c.19.16,6.25-.45,4.48.9h-5.82c-.81-3.17,6.59-4.43,4.45-7.34-2.03-2.76-3.47,1.94-3.77,1.96-1.36-.83.02-2.53.95-3.07,3.06-1.78,5.67,1.88,3.52,4.41-.34.4-4.69,2.36-3.79,3.15Z"/>
      <path class="cls-2" d="m128.59,252.2c.27.28-.26,4.57,0,5.53.14.5,1.13-.07.91.96-1.43.36-.55,1.61-1.57,2.46l-.69-2.21c-.84-.33-3.77.68-3.57-.69.09-.63,2.92-5.18,3.38-5.58.56-.49.77-.58,1.55-.46Zm-1.34,5.82l-.22-3.58-2.47,3.58h2.69Z"/>
      <path class="cls-2" d="m220.77,65.49c.67.67.72,2.59.32,3.47-.81,1.79-4.08,1.98-4.24,4.04.18.16,6.25-.45,4.48.9h-5.82c-.58-3.2,5-4.12,4.91-6.51-.05-1.49-2.11-2.16-3.16-.91-.57.68.05,1.91-1.3,1.59-.93-2.94,3.27-4.13,4.82-2.58Z"/>
      <path class="cls-2" d="m459.66,8.04c.19.16,6.25-.45,4.48.9h-5.82c-.3-2.75,2.47-3.13,3.81-4.48,3.02-3.04-2.03-5.65-2.5-1.38-.64.06-1.58.33-1.3-.63,1.38-4.03,7.24-2.6,5.74,1.71-.28.8-5.31,3.09-4.4,3.88Z"/>
      <path class="cls-2" d="m621.83,252.2c-1.35,2.04-4.17-.61-4.04,2.9.03.5,4.23-.53,4.52,2.69.52,5.61-7.65,3.12-5.86,1.13l3.27,1.72c2.93-2.59.88-6.18-2.82-3.52l.39-4.67,4.53-.26Z"/>
      <path class="cls-2" d="m731.59,200.68c.34,2.5-1.06,5.27,1.35,6.72l-1.28.05-.73,2.18-.69-2.21c-.84-.33-3.77.68-3.57-.69.1-.72,3.02-5.27,3.57-5.74.51-.44.74-.34,1.36-.31Zm-1.34,5.83l-.22-3.58-2.47,3.58h2.69Z"/>
      <path class="cls-2" d="m467.72,233.83c.47,1.83-3.06.42-3.56.92l-.47,2.66,3.85.41c1.96,2.75-.07,6.37-3.53,5.33-.57-.17-2.11-1.74-1.66-2.15.94-.87,1.65,1.15,2.07,1.28,2.89.96,4.01-3.18,1.2-4.36l-2.81.83.45-4.92h4.47Z"/>
      <path class="cls-2" d="m813.13,207.4c.27.26-.3,4.54.06,5.55.28.79,1.37.41,1.29,1.17l-1.37.25.03,2h-1.34s0-2.25,0-2.25c-.81-.25-3.85.67-3.59-.67.06-.33,3.32-5.52,3.57-5.75.49-.45.76-.31,1.37-.3Zm-3.58,6.27l2.04-.42.19-3.61c-.58.37-1.54,1.86-1.82,2.43-.26.54-.58.92-.42,1.6Z"/>
      <path class="cls-2" d="m392.8,3.22c.65.65.75,2.64.33,3.48-.29.59-5.23,3.15-4.26,4.03l4.48.45h-5.82c-.51-3.71,8.37-4.75,2.98-7.98-1.3.2-1.53,1.11-1.63,2.3l-1.35.3c-.53-2.89,3.64-4.21,5.27-2.58Z"/>
      <path class="cls-2" d="m785.8,82.41l4.48.45h-5.82c-.64-3.49,8.98-5.41,2.98-7.93l-1.08.42-1.22,2.13c-1.95-.8.93-4.52,4.25-2.91,1.17.57,1.13,2.76.66,3.8-.78,1.72-4.16,1.72-4.24,4.04Z"/>
      <path class="cls-2" d="m7.18,373.6c.61.69-1.25,6.32,1.35,6.28v.43c-2-.14-.62,2.21-2.01,2.24l-.7-2.22c-.4-.42-3.99.72-3.56-.68.19-.63,4.24-6.82,4.92-6.05Zm-1.34,6.27l-.22-3.58-2.02,3.58h2.24Z"/>
      <path class="cls-2" d="m902.62,143.89c.73.73.66,2.46.23,3.37-.61,1.29-5.31,2.93-4.15,4.14l4.48.45h-5.82c-.62-3.14,4.16-3.29,4.49-5.62.44-3.08-3.36-3.06-3.16-.07l-1.33.32c-.53-2.89,3.63-4.21,5.27-2.58Z"/>
      <path class="cls-2" d="m344.08,70.31c-.12-2.75,4.25-3.7,4.75-5.37.56-1.87-.81-3.03-2.52-2.03-.91.53-.33,2.35-1.78,2.02-.89-3.72,4.82-4.36,5.64-1.35.87,3.2-5.97,5.19-4.75,6.28,1.11.04,2.25-.05,3.36,0,.55.02,1.66-.34,1.56.45h-6.27Z"/>
      <path class="cls-2" d="m783,74.9c.73.73.66,2.46.23,3.37-.88,1.88-4.48,1.78-4.15,4.14l4.48.45h-5.82c-.57-3.02,4.2-3.64,4.5-5.62.44-2.99-3.35-3.36-3.17-.08l-1.33.32c-.53-2.89,3.63-4.21,5.27-2.58Z"/>
      <path class="cls-2" d="m598.98,221.74l-.03,6.03,1.37,1.14-1.38.28c-.17.81.61,1.79-.86,1.52v-1.8c-.89-.28-4.23.7-4.04-.67.1-.71,3.03-5.01,3.67-5.75.4-.46.43-.94,1.27-.74Zm-.9,2.69c-1.03-.26-.74.19-1.02.56-.3.39-1.94,2.77-1.66,3.02l2.49-.42.19-3.16Z"/>
      <path class="cls-2" d="m499.08,236.07l-.03,5.58,1.04.25c1.43.61-.6,1.04-.79,1.32-.53.79.37,2.15-1.11,1.81l-.42-2.05c-.88-.64-4.03.49-3.61-.86.19-.63,4.24-6.82,4.92-6.05Zm-.89,5.82l-.22-3.58-2.47,3.58h2.69Z"/>
      <path class="cls-2" d="m418.44,236.07l-.03,5.58,1.37,1.14-1.37.24c-.17.9.67,2.32-.86,2l-.42-2.05c-.94-.69-3.89.56-3.62-.87.14-.73,4.17-6.93,4.93-6.04Zm-.9,2.24c-1.03-.26-.74.19-1.02.56s-1.94,2.77-1.66,3.02h2.69s0-3.58,0-3.58Z"/>
      <path class="cls-2" d="m12.57,324.32l4.48.45h-5.82c-.09-3.95,6.56-3.46,4.36-7.5h-2.47s-1.22,2.13-1.22,2.13c-1.23-.43-.02-2.85,1.35-3.12,2.95-.58,4.88,1.1,3.56,4.01-.78,1.72-4.16,1.72-4.24,4.04Z"/>
      <path class="cls-2" d="m752.2,239.21c.38.33-2.22,4.13-2.57,4.83-.66,1.3-.56,3.67-2.13,4.14-1.04-1.54,3.23-7.78,2.91-8.07-1.08-.37-4.75.91-4.48-.9h6.27Z"/>
      <path class="cls-2" d="m643.79,77.93c-.8,1.76-1.96,3.31-2.77,5.07-.6,1.3-.5,3.49-1.93,3.89-.45-2.92,1.57-5.64,2.91-8.06-.67-.49-4.86.99-4.48-.9h6.27Z"/>
      <path class="cls-2" d="m405.01,56.87c.29.25-2.01,3.49-2.33,4.17-.71,1.52-.75,4.13-2.37,4.79-1.27-1.53,3.26-7.75,2.91-8.07-1.08-.37-4.75.91-4.48-.9h6.27Z"/>
      <path class="cls-2" d="m401.87,237.86l-3.57,8.66-1.35.3c.49-2.94,2-5.58,3.58-8.06l-4.93-.23c1.64-1.36,4.29-.41,6.27-.67Z"/>
      <path class="cls-2" d="m869.13,180.52l-4.26,8.95c-1-.68-.5-.89-.35-1.68.44-2.32,2-4.22,2.81-6.37-.41-.37-4.05.77-4.48-.9h6.27Z"/>
      <path class="cls-2" d="m579.72,37.16l-3.81,8.96c-1.81-.06-.28-2.88.15-3.89.61-1.46,1.45-2.85,2.32-4.17-.62-.45-4.37.86-4.93-.9h6.27Z"/>
      <path class="cls-2" d="m168.47,299.23c-.08-3.12,1.94-5.43,3.13-8.06-.19-.16-6.25.45-4.48-.9.91.18,6.59-.62,6.05.89-1,1.17-1.74,2.5-2.4,3.88-.22.46-1.39,5.26-2.3,4.19Z"/>
      <path class="cls-2" d="m257.17,209.64c.52.51-1.89,4.16-2.32,5.07-.62,1.34-.49,3.83-2.16,3.88-.08-3.12,1.94-5.43,3.13-8.06-.19-.16-6.25.45-4.48-.9h5.82Z"/>
      <path class="cls-2" d="m659.47,35.82h-1.34v-6.27c-.91-.15-2.58.63-2.24-.89,1.31-.03,2.22-.3,2.68-1.58.25-.44.9.4.9.45v8.29Z"/>
      <path class="cls-2" d="m181.9,199.78v8.29c0,.27-.92.86-1.34.67l-.19-6.3-2.05-.42c1.08-.74,2.3-2.37,3.58-2.24Z"/>
      <path class="cls-2" d="m634.83,77.93v8.29c0,.27-.92.86-1.34.67l-.19-6.3-2.05-.42c1.08-.74,2.3-2.37,3.58-2.24Z"/>
      <path class="cls-2" d="m730.7,293.86h-1.34v-6.27c-.91-.15-2.58.63-2.24-.89,1.31-.03,2.22-.3,2.68-1.58.25-.44.9.4.9.45v8.29Z"/>
      <path class="cls-2" d="m589.13,21.04h-1.34v-6.27c0-.13-2.17.27-2.24-.89,1.19-.2,2.29-.29,2.68-1.58.25-.44.9.4.9.45v8.29Z"/>
      <path class="cls-2" d="m762.51,124.52v8.29c0,.27-.92.86-1.34.67l-.19-6.3-2.05-.42c1.08-.74,2.3-2.37,3.58-2.24Z"/>
      <path class="cls-2" d="m182.35,294.31h-1.34v-6.27c0-.13-2.17.27-2.24-.89,1.32-.02,2.22-.3,2.68-1.58.25-.44.9.4.9.45v8.29Z"/>
      <path class="cls-2" d="m107.09,327.24c-.11.37-.86.82-1.34.67l-.19-6.3-2.05-.42c.18-.89,1.19-.74,1.78-1.15.41-.29.42-1,.5-1.06.39-.29,1.31.43,1.31.65v7.62Z"/>
      <path class="cls-2" d="m633.03,30.89h-1.34v-6.27c0-.13-2.17.27-2.24-.89,1.32-.02,2.22-.3,2.68-1.58.25-.44.9.4.9.45v8.29Z"/>
      <path class="cls-2" d="m106.19,263.4v8.29l-1.34.67v-6.72l-2.24-.22c1.53-.49,2.09-2.21,3.58-2.02Z"/>
      <path class="cls-2" d="m59.15,298.34h-1.34v-6.27c0-.13-2.17.27-2.24-.89,1.32-.02,2.22-.3,2.68-1.58.25-.44.9.4.9.45v8.29Z"/>
      <path class="cls-2" d="m736.07,53.29v8.29l-1.34.67v-6.72l-2.24-.22c1.53-.49,2.09-2.21,3.58-2.02Z"/>
      <path class="cls-2" d="m408.59,180.52v8.29l-.9.45-.45-6.5h-2.24c1.08-.74,2.3-2.37,3.58-2.24Z"/>
      <path class="cls-2" d="m459.66,242.79h-1.34v-6.27c-.89-.08-2.1.51-1.79-.89,1.16-.1,1.81-.49,2.23-1.58.25-.44.9.4.9.45v8.29Z"/>
      <path class="cls-2" d="m805.51,207.4v8.29c0,.27-.92.86-1.34.67l-.06-5.98-2.18-.96,3.59-2.02Z"/>
      <path class="cls-2" d="m225.81,173.8v8.51h-1.34v-6.27l-2.24-.22c1.23-.57,2.25-2.13,3.58-2.02Z"/>
      <path class="cls-2" d="m64.98,289.38v8.96h-1.34v-6.27c-.89-.08-2.1.51-1.79-.89,1.8.19,1.71-1.81,3.13-1.8Z"/>
      <path class="cls-2" d="m814.92,99.88v-6.27c0-.13-2.17.27-2.24-.89,1.32-.02,2.22-.3,2.68-1.58.25-.44.9.4.9.45v7.62l-1.34.67Z"/>
      <polygon class="cls-2" points="40.34 128.55 40.34 136.84 38.99 137.51 38.99 130.79 36.76 130.57 40.34 128.55"/>
      <path class="cls-2" d="m460.56,53.74v8.29l-.9.45-.45-6.5h-2.24c1.08-.74,2.3-2.37,3.58-2.24Z"/>
      <path class="cls-2" d="m413.07,145.58v8.51h-1.34v-6.27l-2.24-.22c1.53-.49,2.09-2.21,3.58-2.02Z"/>
      <path class="cls-2" d="m902.28,376.29c.45.4-2.13,3.74-2.47,4.48-.37.81-.91,3.9-1.34,4.04s-1.39.21-1.07-.62l3.09-7.44-4.48-.45h6.27Z"/>
      <polygon class="cls-2" points="419.34 1.77 419.34 10.06 418.45 10.51 418 4.01 416.2 3.34 419.34 1.77"/>
      <polygon class="cls-2" points="860.17 180.52 860.17 188.81 859.27 189.26 858.83 182.76 857.03 182.09 860.17 180.52"/>
      <path class="cls-2" d="m165.33,209.19v8.51h-1.34v-6.27c-.9-.08-2.1.52-1.79-.89l3.14-1.35Z"/>
      <polygon class="cls-2" points="705.61 252.2 705.61 260.49 704.71 260.94 704.27 254.43 702.47 253.77 705.61 252.2"/>
      <polygon class="cls-2" points="73.49 339.11 73.49 347.39 72.59 347.85 72.15 341.34 70.35 340.68 73.49 339.11"/>
      <path class="cls-2" d="m77.07,115.11h-1.34v-6.27c-.9-.08-2.1.51-1.79-.89,1.23.06,2.14-.52,2.25-1.8.17-.12.89.59.89.67v8.29Z"/>
      <polygon class="cls-2" points="776.84 307.75 776.84 316.04 775.94 316.49 775.5 309.99 773.7 309.32 776.84 307.75"/>
      <polygon class="cls-2" points="648.71 81.51 648.71 89.8 647.82 90.25 647.37 83.75 645.58 83.09 648.71 81.51"/>
      <polygon class="cls-2" points="232.08 268.32 232.08 276.61 231.18 277.07 230.74 270.56 228.94 269.9 232.08 268.32"/>
      <path class="cls-2" d="m693.07,245.48c-.8,1.76-1.96,3.31-2.77,5.07-.33.72-.87,3.4-1.04,3.44-1.13.24-1.25.05-1.03-1.03.54-2.62,2.18-4.61,3.05-7.03l-4.48-.45h6.27Z"/>
      <path class="cls-2" d="m331.98,92.27v8.96h-1.34v-6.72l-1.79-.22c1.45-.44,1.97-1.79,3.13-2.02Z"/>
      <path class="cls-2" d="m653.19,35.82h-1.34v-6.27c-.9-.08-2.1.51-1.79-.89,1.23.06,2.14-.52,2.25-1.8.17-.12.89.59.89.67v8.29Z"/>
      <polygon class="cls-2" points="410.83 236.07 410.83 244.36 409.93 244.81 409.49 238.31 407.69 237.64 410.83 236.07"/>
      <path class="cls-2" d="m896.9,225.32v8.51h-1.34v-6.27c-.9-.08-2.1.52-1.79-.89l3.14-1.35Z"/>
      <polygon class="cls-2" points="311.82 193.96 311.82 202.47 310.48 202.47 310.48 196.2 308.69 196.2 308.69 195.31 311.82 193.96"/>
      <polygon class="cls-2" points="418.89 145.58 418.89 154.09 417.55 154.09 417.55 147.82 415.76 147.81 415.76 146.93 418.89 145.58"/>
      <polygon class="cls-2" points="724.43 285.35 724.43 293.86 723.08 293.86 723.08 287.59 721.29 287.59 721.29 286.7 724.43 285.35"/>
      <polygon class="cls-2" points="327.5 10.28 327.5 18.8 326.16 18.8 326.16 12.52 324.37 12.52 324.37 11.63 327.5 10.28"/>
      <polygon class="cls-2" points="229.84 34.92 229.84 43.44 228.5 43.44 228.5 37.16 226.7 37.16 226.7 36.27 229.84 34.92"/>
      <path class="cls-2" d="m499.53.88v8.96c-2.6.08-.77-6.17-1.34-6.72h-1.8s3.14-2.24,3.14-2.24Z"/>
      <path class="cls-2" d="m187.73,199.78v8.96c-2.6.08-.77-6.17-1.34-6.72h-1.8s3.14-2.24,3.14-2.24Z"/>
      <path class="cls-2" d="m878.98,275.49v8.96c-3.59-.83,1.26-7.52-3.14-6.72l3.14-2.24Z"/>
      <path class="cls-2" d="m231.18,215.01v8.96c-2.86-.02.01-5.32-.92-6.25-.19-.19-2.11.23-2.21-.91,1.8.22,1.71-1.82,3.13-1.8Z"/>
      <path class="cls-2" d="m393.36,154.98h-.9v-6.27c-.91-.15-2.58.63-2.24-.89l3.14-1.8v8.96Z"/>
      <path class="cls-2" d="m174.29,239.21h-.9v-6.27c0-.13-2.17.27-2.24-.89,1.2.5,2.63-1.77,2.91-1.79,1.1-.08.22,1.05.22,1.11v7.84Z"/>
      <path class="cls-2" d="m117.39,82.41v8.51h-.9v-6.27c-.91-.15-2.58.63-2.24-.89l3.14-1.35Z"/>
      <path class="cls-2" d="m699.34,40.75v8.96c-1.05.06-.79.15-.9-.66-.3-2.37,1.3-6.61-2.24-6.06l3.14-2.24Z"/>
      <path class="cls-2" d="m746.83,152.74v8.96c-1.05.06-.79.15-.9-.66-.3-2.37,1.3-6.61-2.24-6.06l3.14-2.24Z"/>
      <path class="cls-2" d="m461.45,180.07v8.96c-1.05.06-.79.15-.9-.66-.3-2.37,1.3-6.61-2.24-6.06l3.14-2.24Z"/>
      <path class="cls-2" d="m226.26,64.94v8.96c-1.05.06-.79.15-.9-.66-.3-2.37,1.3-6.61-2.24-6.06l3.14-2.24Z"/>
      <polygon class="cls-2" points="305.55 97.19 305.55 106.15 304.66 106.15 304.66 99.43 302.42 99.21 305.55 97.19"/>
      <path class="cls-2" d="m351.69,6.7v8.51h-.9v-6.27c-.91-.15-2.58.63-2.24-.89l3.14-1.35Z"/>
      <path class="cls-2" d="m90.51,107.05c-.05,1.52-1.53.45-.45,2.68-1.16.62-.73-1.69-1.78-.87-.15.12.34,1.31-.91.87l.47-1.54c-.64-.46-1.16.02-.92-1.14h3.58Z"/>
      <path class="cls-2" d="m340.94,10.74c-.05,1.52-1.53.45-.45,2.68-1.16.62-.73-1.69-1.78-.87-.15.12.34,1.31-.91.87l.47-1.54c-.64-.46-1.16.02-.92-1.14h3.58Z"/>
      <path class="cls-2" d="m405.01,3.12c-.05,1.52-1.53.45-.45,2.68-1.16.24-.68-.25-1.12-.91l-1.57.91.48-1.54c-.64-.47-1.17.03-.93-1.14h3.58Z"/>
      <path class="cls-2" d="m645.04,22.04l.29.75,1.14-.41c-.03,1.52-1.53.45-.45,2.68-1.16.62-.73-1.69-1.78-.87-.15.12.34,1.31-.91.87l.47-1.54c-.64-.46-1.16.02-.92-1.14l2.15-.35Z"/>
      <path class="cls-2" d="m207.44,45.23l.08.83,1.27-.39c-.13,1.55-1.5.52-.45,2.68l-.9-.89-1.79.89.49-1.53c-1.73-.57-1.25-1.55.35-.79l.06-.81h.89Z"/>
      <path class="cls-2" d="m795.21,74.8l-1.34.9.9,1.78c-1.49-.23-1.26-1.37-2.68,0l.48-1.54c-.64-.47-1.17.03-.93-1.14h3.58Z"/>
      <path class="cls-2" d="m913.11,143.67c.5.3,1.16.08,1.71.11l-1.25,1.09.35,1.6-1.12-1.35-1.12,1.35c.22-1.24.44-1.7-.45-2.68.85.08,1.52.07,1.35-.9.73-.2.27.63.52.78Z"/>
      <path class="cls-2" d="m566.36,9.77l1.26-.38c-.13,1.55-1.5.52-.45,2.68l-.9-.89-1.79.89.89-1.12-1.33-.89,2.02-1.12.3.83Z"/>
      <path class="cls-3" d="m56.91,189.03l-3.14,1.35v.89s1.79,0,1.79,0v6.27h1.34v-8.51Zm7.96,2.35c-1.22-1.22-3.94-.38-4.81,1.01l2.9-.71c.91-.09,1.68,1.45.84,1.82l-3.64,1.01c-.51,1.15-.68,2.33.33,3.25l5.83.22c-1.77-1.48-.16-5.32-1.45-6.61Zm6.37,62.16c-1.81-.02-1.26,1.36-.23,2.25,2.11,1.84,5.62.47,5.18-2.45-.15-.97-1.26-1.48-1.26-1.8,0-.18.76-.89.84-1.8.18-2.17-1.96-2.94-3.77-2.39-1.53.47-2.27,3.78-.99,3.05.82-3.74,4.99-2.01,3.33.19-.77,1.02-2.02.2-1.76,1.61,5.71.44-.15,7.07-1.35,1.35Zm16.58-5.37l-2.02-.9-.29.83-1.27-.38.92,1.14-.47,1.54.9-.89,1.79.89-.49-1.53.94-.7Zm-4.48,8.5c.12-.89-.72-1.16-.88-2.02-.24-1.26.38-3.82-.22-4.71-1.66-1.32-4.32-1-4.72,1.36.48.47,3.2-3.24,4.03.22l-3.92,1.23c-1.19,1.33-.24,3.79,1.48,3.94.99.08,1.72-.78,2.21-.75.45.03,1.18,1.06,2.02.73Zm-41.96,5.97c1-1.06,3.62-1.63,4.15-3.26,1.37-4.23-6.14-5.25-5.64-.47l1.77-2.03,2.51.21c1.68,3.48-4.93,4.13-4.72,6.98.07.92,5.46,1.12,6.25,0l-4.93-.23c-.05-.04.42-1.01.6-1.2Zm10.73,1.55c-.99-1.41,1.54-6.38-2.17-6.61-3.47-.21-4.39,4.14-.42.86l1.56,1.13c-.84,1.68-3.18.63-4.07,1.75l-.18,2.96c2,2.09,3.34-.99,5.37.9l.68-.89c-.22,0-.66.04-.76-.1Zm20.48,6.37c-.3,1.25,1.03,2.45,2.11,2.61,3.72.58,5.09-7.66,1.91-9.1-5.13-2.33-5.94,8.07.45,5.14.3,1.17-.65,3.03-1.94,3.05s-1.23-1.89-2.53-1.71Zm12.99,4.93l-3.14,1.57,1.8.66.44,6.5.9-.45v-8.29Zm8.06,0h-4.47s-.45,4.92-.45,4.92l3.28-.83c1.86,1.02,1.45,4.58-.83,4.4-1.28-.1-1.55-1.89-2.9-1.77.04,2.63,3.51,3.35,5.14,1.77,2.58-2.49-.18-6.51-3.34-4.91v-2.69c.14-.14,5.26.39,3.58-.89Zm-54.33,9.92c-.71.11-2.33,1.36-2.5,2.05-.35,1.34.86,1.88.77,2.51-.09.58-1.21,1.12-1.17,2.24.14,3.68,6.48,3.34,6.21-.37-.07-.91-.74-1.42-.81-1.86-.17-1.21,1.15-5.13-2.5-4.56Zm41.79,12.47c-1.43,0-1.33,1.99-3.13,1.8-.31,1.4.9.81,1.79.89v6.27h1.34v-8.96Zm5.26.07c-3.43.62-3.75,9.61.75,9.33,3.98-.24,3.97-10.18-.75-9.33Zm-43.79,23.23h-5.82c-1.77,1.35,4.29.73,4.48.9-1.1,2.64-3.41,4.97-3.13,8.06,1.66-.05,1.54-2.55,2.16-3.88.42-.91,2.84-4.56,2.32-5.07Z"/>
      <path class="cls-3" d="m902.57,315.86c2.53-.85,3.93,2.33,1.95,3.32-2.52,1.27-3.66-2.75-1.95-3.32Z"/>
      <path class="cls-3" d="m903,311.82c2.35-.78,2.58,2.62,1.25,3.06-2.35.78-2.58-2.62-1.25-3.06Z"/>
      <path class="cls-3" d="m398.13,186c2.45-.21,3.17,4.18-.51,3.49-1.96-.37-1.42-3.33.51-3.49Z"/>
      <path class="cls-3" d="m398.12,181.89c1.94.48,2.03,2.6.34,3.53-1.94-.48-2.03-2.6-.34-3.53Z"/>
      <path class="cls-3" d="m173.06,258.58c1.05-1.06,2.8-.5,3.03,1.03.6,3.93-5.54,1.5-3.03-1.03Z"/>
      <path class="cls-3" d="m175.57,257.07c-1.92,1.2-3.95-1.73-1.74-2.87,1.98-1.02,2.59,2.34,1.74,2.87Z"/>
      <path class="cls-3" d="m559.43,13.95c3.85-1.16,2.67,4.79-.32,3.29-1.37-.69-1.15-2.85.32-3.29Z"/>
      <path class="cls-3" d="m559.39,9.87c2.39-.77,3.02,2.54,1.23,3.07-1.67.5-2.83-2.56-1.23-3.07Z"/>
      <path class="cls-3" d="m398.62,7.71c2.76,2.76-3.64,4.97-3.03,1.03.24-1.55,1.99-2.07,3.03-1.03Z"/>
      <path class="cls-3" d="m396.11,6.18v-2.55l1.72-.32c1.36.95,1.23,2.6-.28,3.29l-1.44-.43Z"/>
      <path class="cls-3" d="m769.57,132.47c-1.45,1.65-4.8-.62-2.82-2.58,1.82-1.8,4.22.97,2.82,2.58Z"/>
      <path class="cls-3" d="m769.15,125.49c1.07.66.26,3.89-1.72,2.86-1.95-1.01-.34-4.13,1.72-2.86Z"/>
      <path class="cls-3" d="m640.1,27.42c1.4,1.6-.99,4.38-2.82,2.58-1.98-1.96,1.37-4.23,2.82-2.58Z"/>
      <path class="cls-3" d="m639.68,25.89c-2.06,1.27-3.67-1.85-1.72-2.86s2.78,2.21,1.72,2.86Z"/>
      <path class="cls-3" d="m259.34,267.36c-.73,1.15-4.47.17-3.32-2.17s4.83-.21,3.32,2.17Z"/>
      <path class="cls-3" d="m257,260.3c2.23-.72,3.35,2.51,1.2,3.05-1.75.44-2.75-2.55-1.2-3.05Z"/>
      <path class="cls-3" d="m229.95,178.84c1.69-1.65,4.57,1.03,2.81,2.58-2.01,1.76-4.29-1.13-2.81-2.58Z"/>
      <path class="cls-3" d="m230.4,177.28c-1.06-1.1-.03-3.71,1.69-2.82,2.33,1.21-.19,4.38-1.69,2.82Z"/>
      <path class="cls-3" d="m577.37,219.61c1.07,1.24.24,4.76-2.12,3.71-1.41-.7-1.25-3.85.31-4.21.54-.07,1.47.1,1.81.5Z"/>
      <path class="cls-3" d="m58.6,323.77c-2.07,2.14-4.51-2.51-2.13-3.71s3.56,2.23,2.13,3.71Z"/>
      <path class="cls-3" d="m235.78,222.97c-1.42-1.43-.04-4.79,2.12-3.72,2.34,1.16.19,6.05-2.12,3.72Z"/>
      <path class="cls-3" d="m902.14,225.81c2.19-.55,2.64,3.89,1.2,4.38-3.14,1.24-3.12-3.9-1.2-4.38Z"/>
      <path class="cls-3" d="m752.04,156.83l1.98.15c1.79,1.59-.15,5.49-2.07,3.87-.89-.75-1.07-3.63.1-4.02Z"/>
      <path class="cls-3" d="m124.4,313.2c2.34-.44,2.86,4.17.36,4.42s-2.52-4.02-.36-4.42Z"/>
      <path class="cls-3" d="m334.61,14.38c.58,1.06.83,3.26-.25,4-2.69,1.85-4.76-5.1.25-4Z"/>
      <path class="cls-3" d="m770.46,256.57c-2.07,2.14-4.51-2.51-2.13-3.71s3.56,2.23,2.13,3.71Z"/>
      <path class="cls-3" d="m84.13,110.75c1.45,1.51.23,4.9-2.13,3.71s.28-5.64,2.13-3.71Z"/>
      <path class="cls-3" d="m312.38,251.64c-1.32-1.33-.22-4.89,2.13-3.7s.17,6.02-2.13,3.7Z"/>
      <path class="cls-3" d="m466.68,184.17c.75-.25,2.03-.23,2.33.67.36,8.22-6.03.57-2.33-.67Z"/>
      <path class="cls-3" d="m665.8,273.64c-2.14-3.29,1.87-6.3,2.9-2.63.55,1.96-1.01,3.2-2.9,2.63Z"/>
      <path class="cls-3" d="m465.33,54.7c.6-.2,1.8-.21,2.19.36l-.22,3.42c-2.89,1.58-4.2-3.03-1.97-3.77Z"/>
      <path class="cls-3" d="m702.36,96.41c1.32,1.33.22,4.89-2.13,3.7s-.17-6.02,2.13-3.7Z"/>
      <path class="cls-3" d="m346.15,245.54c2.29-.26,2.67,3.88,1.23,4.36-2.94.99-3.78-3.07-1.23-4.36Z"/>
      <path class="cls-3" d="m808.26,332.78c-.61-1.57-1.26-4.03,1.06-4.01,3.26.02,2.48,5.13-1.06,4.01Z"/>
      <path class="cls-3" d="m707.25,202.97c2.49-.8,3.35,3.76,1.18,4.37-2.92.81-2.94-3.8-1.18-4.37Z"/>
      <path class="cls-3" d="m234.21,152.63l-1.67.36c-1.94-.91-1.71-6.87-.17-7.38,3.19-1.08,2.79,5.35,1.85,7.02Z"/>
      <path class="cls-3" d="m704.31,41.69c.87-.61,2.41.36,2.63,1.54.25,1.33.49,6.04-1.56,6.05-2.6,0-2.22-6.78-1.08-7.59Z"/>
      <path class="cls-3" d="m867.28,289.32c-5.23,1.02-2.95-6.83.44-3.22l-.44,3.22Z"/>
      <path class="cls-3" d="m808.16,180.12c1.14.8,1.52,7.59-1.08,7.59-2.83,0-1.99-9.74,1.08-7.59Z"/>
      <path class="cls-3" d="m316.41,194.97l1.67-.36c5.1,8.14-4.89,11.33-1.67.36Z"/>
      <path class="cls-3" d="m467.57.93c3.97-1.28,2.8,10.48-.53,7.13-1.01-1.28-1.14-6.59.53-7.13Z"/>
      <path class="cls-3" d="m399.03,146.97c2.52-.66,3.14,7.89-.07,7.6-2.23-.2-2.04-7.05.07-7.6Z"/>
      <path class="cls-3" d="m905.92,151.34c-.76-1.54-1.24-8.03,1.45-7.48,2.21.46,2.69,9.07-1.45,7.48Z"/>
      <path class="cls-3" d="m710.2,260.15c-.88-.91-1-6.16.33-6.84,4.31-2.19,2.88,10.18-.33,6.84Z"/>
      <path class="cls-3" d="m169.92,217.15c-.89-1.5-1.25-7.98,1.4-7.44,2.29.47,2.55,9.34-1.4,7.44Z"/>
      <polygon class="cls-3" points="312.27 103.02 309.58 103.01 312.05 99.44 312.27 103.02"/>
      <polygon class="cls-3" points="188.63 291.62 185.94 291.62 188.4 288.04 188.63 291.62"/>
      <path class="cls-3" d="m112.47,269.22h-2.69s2.25-3.58,2.25-3.58c1.01.4.19,2.69.44,3.58Z"/>
      <polygon class="cls-3" points="127.25 258.02 124.56 258.02 127.03 254.44 127.25 258.02"/>
      <polygon class="cls-3" points="730.25 206.5 727.56 206.5 730.03 202.92 730.25 206.5"/>
      <path class="cls-3" d="m809.55,213.67c-.16-.68.15-1.05.42-1.6.28-.58,1.24-2.06,1.82-2.43l-.19,3.61-2.04.42Z"/>
      <polygon class="cls-3" points="5.85 379.88 3.61 379.87 5.62 376.29 5.85 379.88"/>
      <path class="cls-3" d="m598.09,224.42l-.19,3.16-2.49.42c-.28-.24,1.36-2.63,1.66-3.02s0-.82,1.02-.56Z"/>
      <polygon class="cls-3" points="498.19 241.9 495.5 241.89 497.97 238.31 498.19 241.9"/>
      <path class="cls-3" d="m417.55,238.31v3.58s-2.68,0-2.68,0c-.28-.24,1.37-2.65,1.66-3.02s0-.82,1.02-.56Z"/>
      <path class="cls-2" d="m453.26,39.76c-.1.14-.54.11-.76.1,3.83,3.27-1.02,7.51-4.04,4.26-1.9-2.04.17-2.53.37-3.67.16-.91-1.85-2.27.1-3.94,2.69-2.3,5.67,1.32,4.33,3.25Zm-2.69-2.99c-2,.5-1.14,3.5.72,3.04,2-.5,1.14-3.5-.72-3.04Zm1.86,4.5c-.72-1.15-4.61-.41-3.3,2.17,1.18,2.35,4.8.21,3.3-2.17Z"/>
      <path class="cls-2" d="m389.33,41.64c-1.02-3.46-3.45-1.3-3.59,1.35,7.08-3.11,5.94,7.57.55,5.04-2.6-1.22-2.14-9.84,2.25-9.01,1.51.29,3.11,2.57.79,2.61Zm-1.94,1.39c-1.56.41-1.96,3.12-.77,4.23,3.91,1.81,3.33-4.9.77-4.23Z"/>
      <path class="cls-2" d="m387.85,209.95c-1.14.93-3.67.96-4.29-.6-.23-.57-.27-1.27.61-1.06l.99,1.36c1.64.27,2.58-.38,2.83-2.03.19-1.26-1.77.05-3.16-.41-2.8-.93-2.17-6.89,2.39-5.54,2.66.79,2.37,6.87.64,8.28Zm-.43-7.37c-2.07-2.14-4.51,2.51-2.13,3.71s3.56-2.23,2.13-3.71Z"/>
      <path class="cls-2" d="m424.72,207.85c-.49-3.12,6.8-4.6,4.52-7.43-2.03-2.51-2.53,1.44-4.07,1.61-.26-4.38,6.49-3.98,5.75.12-.4,2.23-3.94,2.8-4.86,4.81,1.37.13,2.94-.17,4.26,0,.82.1.72-.15.66.9h-6.27Z"/>
      <path class="cls-2" d="m377.68,47.92c-.27-2.91,4.33-3.79,4.86-5.7.56-2.01-1.86-3.08-2.96-1.8-.55.63.03,2.5-1.45,2.12-.52-6.59,9.01-2.63,4.5,1.59-1.1,1.03-2.97,1.3-3.61,2.89,1.5.26,4.06-.74,4.93.9h-6.27Z"/>
      <path class="cls-2" d="m429.2,42.08c.06.1,1.23-.21,1.33,1.62.22,3.9-6.04,4.07-6.26.18,1.92-.45,1.08.82,1.75,1.59,2.45,2.8,5.42-3.54.93-2.94-.47-1.38,1.44-.94,1.73-1.4.66-1.05-.09-3.16-1.89-2.58-1.24.4-.55,2.49-2.08,2.18-.57-4.11,6.1-4.36,5.37-.24-.12.66-1,1.42-.89,1.58Z"/>
      <path class="cls-2" d="m418,116c1.37.13,2.94-.17,4.26,0,.65.08,1.39.34.66.89-.96-.14-6.2.48-6.26-.67.4-2.52,4.62-3.43,4.92-5.4.44-2.87-3.55-2.8-3.15-.08l-1.33.32c-.21-4.63,6.94-3.81,5.64.46-.6,1.97-3.89,2.52-4.74,4.46Z"/>
      <path class="cls-2" d="m418.9,45.67l4.92.22c-.81,1.1-6.08.97-6.27,0-.52-2.62,7.07-3.88,4.42-7.32-.42-.26-1.72-.12-2.19.16-.91.53-.33,2.35-1.78,2.02-.9-3.7,4.81-4.37,5.64-1.35.9,3.28-5.95,5.21-4.75,6.28Z"/>
      <path class="cls-2" d="m383.5,119.14c.28-.04,6.04-.29,4.48.9h-5.82c-.61-3.07,4.75-3.94,4.95-6.07.24-2.56-3.62-2.82-3.61.25-.8.05-.95.21-.91-.68.16-3.73,6.2-2.69,5.67.7-.4,2.53-3.7,2.76-4.75,4.91Z"/>
      <path class="cls-2" d="m366.6,208.2c.17.24.99-.25.78.76-1.18.37-.98.86-.9,2.02h-1.34s0-1.8,0-1.8h-3.59c-.85-.87,3.26-6.34,4.26-7.15,1.32-.02.23,5.37.79,6.17Zm-1.46.1l-.22-3.58-2.47,3.58h2.69Z"/>
      <path class="cls-2" d="m394.7,111.97l-3.61.2c-1.69,4.23,1.15.88,3.17,3.16,3.26,3.67-3.64,7.85-5.38,2.92,2-.05,2.91,2.79,4.7.44,1.04-3.84-1.39-3.91-4.25-2.69l.64-4.51c.45-.65,4.4-.88,4.73.47Z"/>
      <path class="cls-2" d="m428.75,107.95v5.98s.89.73.89.73c-1.6-.35-.61,1.96-.89,2.25h-1.34s0-2.25,0-2.25c-.33-.34-4.57.7-4.03-.66.12-.31,3.56-5.37,3.82-5.59.56-.49.77-.58,1.55-.46Zm-1.35,2.24c-.82.59-1.81,2.02-2.25,2.9-.26.52-.59.91.25,1.13l1.81-.42.2-3.6Z"/>
      <path class="cls-2" d="m362.11,50.94c-.34-.33-.76-1.9-.56-2.13,1.42-.14,1.11,1.6,2.47,1.82,3.24.52,3.2-3.98-.23-3.62l2.03-1.33c.86-1.39-.51-2.87-2.03-2.51l-2.24,2.5c-.16-2.51,2.2-4.03,4.48-2.91,1.67.82.52,2.68.56,3.68.04,1.09,1.45,1.69.54,3.7-.72,1.61-3.95,1.85-5.03.8Z"/>
      <path class="cls-2" d="m449.35,206.95h-1.34s3.13-8.06,3.13-8.06c-.18-.16-6.25.45-4.48-.9,1.01.14,6.2-.48,6.26.67-1.76,2.48-3.5,5.11-3.58,8.29Z"/>
      <path class="cls-2" d="m443.98,206.95h-1.34v-6.27c0-.13-2.17.27-2.24-.89,1.32-.02,2.22-.3,2.68-1.58.25-.44.9.4.9.45v8.29Z"/>
      <path class="cls-2" d="m422.03,198.89v8.96c-2.52-.21-.86-4.35-1.32-6-.15-.53-1.75-.19-1.82-1.17,1.8.22,1.71-1.82,3.13-1.8Z"/>
      <path class="cls-2" d="m444.88,35.82v8.96h-.9v-6.27c0-.13-2.19.26-2.24-.89,1.8.22,1.71-1.82,3.13-1.8Z"/>
      <path class="cls-2" d="m682.87,81.86c-1.86-1.87.69-3.91.69-4.14,0-.22-.71-.76-.8-1.38-.58-3.76,4.69-3.64,5.32-1.21.34,1.31-.71,2.03-.68,2.58.04.68,1.5,1.15,1.01,2.92-.65,2.38-3.79,2.14-5.54,1.23Zm1.3-4.88c.81,1.3,3.66-.48,2.43-2.2-1.14-1.59-3.46.55-2.43,2.2Zm.23,1.46c-2.04.69,0,5.25,2.41,2.87,1.46-1.44-.47-3.52-2.41-2.87Z"/>
      <path class="cls-2" d="m629.45,58.22c-1.03.97-1.78-1.55-2.52-1.71-1.63-.36-1.9,2.01-2.4,3.06,8.23-2.94,4.91,8.89.01,4.69-1.5-1.29-1.22-6.42.22-7.81,2.57-2.46,5.41,1.1,4.69,1.77Zm-2.83,1.42c-2.14.18-2.42,4.12-.52,4.43,3.46.57,2.54-4.61.52-4.43Z"/>
      <path class="cls-2" d="m666.67,232.01l1.31.25c-1.25.69-1.59.91-1.34,2.47h-1.34s0-1.8,0-1.8c-1.35-.13-3.07.51-4.02-.67l4.69-6.49c1.29-.01.32,5.88.71,6.24Zm-1.38.03l-.22-3.58-2.47,3.58h2.69Z"/>
      <path class="cls-2" d="m605.15,58.56c-1.29,1.3-6.23.88-5.27-2.13,1.4-.12,1.49,2.08,2.91,2.08,2.65,0,2.63-4.39-.67-3.88.13-.89,1.48-.29,2.03-1.33.35-.68.39-1.49-.24-2.04l-1.67-.35-2.36,2.37c.02-2.36,1.41-3.58,3.79-3.13,2.68.51,1.07,2.95,1.27,4.17.16.95,1.7,2.72.21,4.22Z"/>
      <path class="cls-2" d="m671.01,74.24c-1.29,1.3-6.24.87-5.27-2.13,1.4-.33.84,1.07,1.45,1.68,2.13,2.12,6.02-3.23.79-3.48.13-.89,1.51-.3,2.04-1.34.71-1.39-.82-3.26-2.21-2.22-.93.7-.61,2.33-2.07,2.22.02-2.36,1.41-3.58,3.79-3.13,2.67.51,1.09,2.91,1.27,4.17.13.91,1.71,2.71.21,4.22Z"/>
      <path class="cls-2" d="m628.55,218.15l-3.61.2c-2.02,4.24,2.21,1.22,3.64,3.58,2.49,4.12-4.24,7.05-5.85,2.5,2.2.06,1.39,2.02,4.18,1.35,2.14-3.94-.16-5.11-3.73-3.6l.64-4.06c.37-.53,4.46-1.59,4.73.02Z"/>
      <path class="cls-2" d="m659.02,234.73h-1.34v-6.27c0-.13-2.17.27-2.24-.89,1.32-.02,2.22-.3,2.68-1.58.25-.44.9.4.9.45v8.29Z"/>
      <path class="cls-2" d="m663.05,65.83v8.51h-1.34v-6.27l-2.24-.22c1.53-.49,2.09-2.21,3.58-2.02Z"/>
      <path class="cls-2" d="m620.49,64.49h-.9v-6.27c-.91-.15-2.58.63-2.24-.89,1.54.64,2.73-1.77,2.91-1.79,1.11-.12.22,1.05.22,1.11v7.84Z"/>
      <path class="cls-2" d="m620.04,217.7v8.51h-.9v-6.27c-.91-.15-2.58.63-2.24-.89l3.14-1.35Z"/>
      <path class="cls-2" d="m735.97,233.72c-1.91,1.91-7.22-.22-4.66-3.79.15-.21.71-.11.73-.14.14-.22-.67-.74-.8-1.21-1.29-4.95,6.11-3.83,5.19-.47-.11.39-.67.76-.73,1.11-.08.44,1.87,2.9.26,4.51Zm-3.36-4.94c1.78,1.78,3.83-1.7,1.68-2.81-1.72-.89-2.75,1.74-1.68,2.81Zm2.46,1.58c-2.53-2.52-4.95,3.62-1.03,3.03,1.53-.23,2.09-1.97,1.03-3.03Z"/>
      <path class="cls-2" d="m784.91,157.23c.94-.89,1.6,1.3,2.46,1.38,1.67.16,1.99-1.55,2.46-2.72-7.27,2.75-5.69-8.18-.73-5.33,3.03,1.74,2.01,9.52-2.16,8.92-.79-.11-2.55-1.77-2.04-2.25Zm2.54-6.23c-1.87.48-1.99,4.3-.08,4.47,2.95.26,2.52-5.1.08-4.47Z"/>
      <path class="cls-2" d="m794.65,284.79c-.65.65-3.18.74-4.06.47-1.21-.37-2.4-2.78-.31-2.6,1.02,5.14,7.08-.57,1.35-1.8l1.83-1.2c.95-1.79-.58-3.31-2.3-2.17-.64.42-.3,2.28-1.77,2.03-.7-3.56,5.25-4.57,5.41-1.12.04.75-.45,1.53-.35,2.17.13.91,1.71,2.71.21,4.22Z"/>
      <path class="cls-2" d="m779.08,186.35c.39,1.82-2.64.41-3.52.96-1.3,4.01-.28,2.01,1.4,2.26,4.64.7,2.71,8.1-2.25,5.85-.94-.43-1.15-.89-1-1.9.97-.25,1.2.84,1.8,1.12,1.73.81,2.83-.53,2.72-2.24-.23-3.71-3.78-.8-4.07-1.12l.4-4.66,4.53-.26Z"/>
      <path class="cls-2" d="m785.8,136.17c.18.16,6.25-.45,4.48.9h-5.82c-.79-3.07,4.64-4,4.83-6.11-.03-1.78-1.85-2.76-3.08-1.3-.68.82.17,2.02-1.75,1.59.79-6.36,9.44-2.02,4.25,2.24-1,.82-2.94,1.08-2.91,2.69Z"/>
      <path class="cls-2" d="m739.66,96.75c-.8,1.76-1.96,3.31-2.77,5.07-.6,1.3-.5,3.49-1.93,3.89-.45-2.92,1.57-5.64,2.91-8.06-.67-.49-4.86.99-4.48-.9h6.27Z"/>
      <path class="cls-2" d="m730.7,96.75v8.29c0,.27-.92.86-1.34.67l-.19-6.3-2.05-.42c1.08-.74,2.3-2.37,3.58-2.24Z"/>
      <path class="cls-2" d="m782.22,159.02h-1.34v-6.27c0-.13-2.17.27-2.24-.89,1.32-.02,2.22-.3,2.68-1.58.25-.44.9.4.9.45v8.29Z"/>
      <path class="cls-2" d="m795.21,128.1v8.96c-1.05.06-.79.15-.9-.66-.3-2.37,1.3-6.61-2.24-6.06l3.14-2.24Z"/>
      <path class="cls-2" d="m770.57,195.3h-.9v-6.27c0-.13-2.17.27-2.24-.89l3.14-1.8v8.96Z"/>
      <path class="cls-2" d="m786.25,276.39v7.84c0,.1.67.51.45.67h-1.34s0-6.27,0-6.27l-2.24-.22,3.13-2.02Z"/>
      <path class="cls-2" d="m887.37,203.68c-2.78,2.27-7.73-1.82-3.89-4.13-3.65-5.09,5.19-6.26,4.47-1.82-.09.58-.75,1.11-.76,1.38-.01.57,2.6,2.58.17,4.56Zm-2.73-7.89c-1.33.44-1.1,3.83,1.25,3.06,1.33-.44,1.1-3.83-1.25-3.06Zm.05,4.06c-2.11.59-1.32,4.15,1.15,3.46,2.11-.59,1.32-4.15-1.15-3.46Z"/>
      <path class="cls-2" d="m844.49,167.53c-1.28.22-1.07-1.43-2.18-1.59-1.47-.2-2.47,1.68-2.29,2.93,6.78-2.68,6.08,7.64.45,5.14-2.34-1.04-1.95-7.95.3-8.63,1.72-.53,3.99-.04,3.72,2.15Zm-1.4,1.85c-5.23-1.02-2.95,6.83.44,3.22l-.44-3.22Z"/>
      <path class="cls-2" d="m876.17,324.84c4.19-.64,4.34,8.85.77,9.35-4.74.66-4.4-8.79-.77-9.35Zm-.03.87c-2.11.56-2.29,7.41-.07,7.6,3.21.28,2.58-8.27.07-7.6Z"/>
      <path class="cls-2" d="m828.81,145.58l1.35.31.72,1.43c3.67.63,4.01-3.83.17-3.55.17-1.01,1.64-.73,2.03-1.32,1.76-2.65-2.91-4.12-2.97-.5l-1.3-.19c.46-2.51,3.76-4.1,5.4-1.83,1.25,1.73-.32,2.58-.33,3.18,0,.7,2.01,1.45.77,3.6-1.46,2.53-5.87,1.95-5.85-1.14Z"/>
      <path class="cls-2" d="m844.49,215.91c1.68,1.28-3.44.75-3.58.89v2.69c3.17-1.9,5.93,2.69,3.39,4.95-2.6,2.31-6.08-.98-5.17-1.81,1.07-.98,1.65,1.66,2.9,1.77,2.27.19,2.69-3.39.83-4.4l-3.28.83.45-4.92h4.47Z"/>
      <path class="cls-2" d="m843.74,246.96c-.18.19-.65,1.16-.6,1.2l4.93.23c-.8,1.13-6.19.93-6.25,0-.21-2.85,6.4-3.5,4.72-6.98l-2.51-.21-1.77,2.03c-.61-3.46,4.69-4.52,5.64-1.35.98,3.28-2.69,3.52-4.15,5.08Z"/>
      <path class="cls-2" d="m874.05,236.52c.27.28-.26,4.57,0,5.53.14.5,1.13-.07.91.96-1.43.36-.55,1.61-1.57,2.46l-.69-2.21c-.42-.43-4.44.73-4.01-.68.27-.87,4.32-7.12,5.37-6.05Zm-1.34,5.82l-.22-3.58-2.47,3.58h2.69Z"/>
      <path class="cls-2" d="m830.15,291.17c.34,2.5-1.06,5.27,1.35,6.71l-1.38.25-.63,1.99-.7-2.22c-.45-.46-3.85.78-3.57-.7.14-.73,4.17-6.93,4.93-6.04Zm-1.34,5.82c-.25-.89.57-3.18-.44-3.58l-1.8,3.58h2.24Z"/>
      <path class="cls-2" d="m879.43,194.85v8.96c-2.54.18-.79-5.74-1.34-6.27l-1.8-.66,3.14-2.02Z"/>
      <polygon class="cls-2" points="844.04 310.44 844.04 319.4 842.7 319.4 842.51 313.09 840.9 312.67 844.04 310.44"/>
      <path class="cls-2" d="m836.42,215.91v8.96c-2.6.08-.77-6.17-1.34-6.72h-1.8s3.14-2.24,3.14-2.24Z"/>
      <polygon class="cls-2" points="835.98 165.29 835.98 173.8 834.63 173.8 834.63 167.53 832.84 167.53 832.84 166.64 835.98 165.29"/>
      <path class="cls-2" d="m870.47,333.73h-.9v-6.27c-.91-.15-2.58.63-2.24-.89l3.14-1.8v8.96Z"/>
      <path class="cls-2" d="m839.11,240.1v8.96c-1.05.06-.79.15-.9-.66-.3-2.37,1.3-6.61-2.24-6.06l3.14-2.24Z"/>
      <path class="cls-2" d="m849.86,310.44v8.96c-1.05.06-.79.15-.9-.66-.17-1.3.36-4.88-.19-5.64l-2.05-.64,3.14-2.02Z"/>
      <polygon class="cls-2" points="865.99 236.52 865.99 245.03 865.1 245.03 865.1 238.76 862.86 238.54 865.99 236.52"/>
      <path class="cls-2" d="m194.31,157.98c-2.6,2.85-4.9-.36-6.3-.31-1.04.04-4.48,1.45-5.76,1.9-6.23,2.2-12.25,5.07-18.4,7.47-.91,3.56-5.14,5.42-7.21,1.78-1.66-2.91.82-3.39,1.11-5.53v-49.33c-.3-2.15-2.67-3.24-1.02-5.9,1.81-2.93,4.01-.99,5.83-1.32,2.67-.49,22.32-8.46,24.82-10.02,1.51-.94,2.59-4.72,6.18-2s-.66,5.23-.92,7.14v48.88c.31,2.35,4.77,3.84,1.67,7.23Zm-4.44-57.11l-2.69-1.36-23.37,9.28c-.49,2.63-1.15,3.75-3.34,5.27l.16,49.42c.13.23,1.61,1.21,1.9,1.27,1.66.34,20.96-8.8,24.42-9.43l2.93-3.35v-51.11Z"/>
      <path class="cls-2" d="m149.2,254.44c1.44-.31.94,1.8,2.46,1.81,1.17,0,2.18-2.09,2.01-3.15-5.33,2.85-6.63-5.33-2-5.4s3.72,10-.36,9.36c-1.08-.17-2.43-1.37-2.11-2.61Zm3.92-1.9c1.43-1.48.25-4.91-2.13-3.71s.06,5.85,2.13,3.71Z"/>
      <path class="cls-2" d="m207.77,173.68c-1,.93-3.71.9-4.31-.61-.33-.82-.13-1.28.83-1.06.64,2.67,3.24,1.68,3.6-.67.2-1.31-1.96.1-3.27-.3-2.67-.81-2.11-7.08,2.51-5.66,2.33.71,2.08,6.96.64,8.31Zm-2.91-7.4c-1.15,2.23-.9,4.84,2.14,3.71,1.96-1.9.31-4.9-2.14-3.71Z"/>
      <path class="cls-2" d="m196.58,85.65l1,6.61c-.84.33-1.57-.71-2.02-.73-.62-.03-4.36,2.03-4.2-1.28.15-2.94,4.16-2.03,4.43-3.15.21-.9-.92-1.09-1.59-1.16-1.47-.13-.85,1.35-2.44.93.5-2.19,3.09-2.17,4.82-1.23Zm-1.46,2.6c-1.07.23-3.64,1.81-2.04,2.91s3.92-1.44,2.04-2.91Z"/>
      <path class="cls-2" d="m151,179.17c.18.16,6.25-.45,4.48.9h-5.82c-.69-3.24,4.37-3.64,4.53-6.04.2-3.19-3.21-2.46-3.22.19l-1.31.03c-.18-4.67,7.06-3.82,5.73.58-.61,2.01-4.2,2.23-4.39,4.35Z"/>
      <path class="cls-2" d="m139.35,121.84c1.4-.29.83,1.33,2.1,1.72,2.01.61,3.42-1.28,2.41-2.75-.62-.91-2.68-.34-2.28-1.42.13-.36,1.36-.3,1.84-.86,1.92-2.25-3.55-4-2.73-.26-2.62.5-1-2.48.43-2.95,4.78-1.56,3.05,2.8,3.3,4.44.07.46.74.96.81,1.87.26,3.64-5.92,4.16-5.87.23Z"/>
      <path class="cls-2" d="m205.54,244.24c.67.67.72,2.6.33,3.47-.69,1.51-4.17,2.04-4.25,4.03.18.16,6.25-.45,4.48.9h-5.82c-.79-3.07,4.64-4,4.83-6.11-.03-1.78-1.85-2.76-3.08-1.3-.27.33-.56,2.65-1.75,1.59-1.09-.97,2.89-4.96,5.27-2.58Z"/>
      <path class="cls-2" d="m189.55,89.11l1.31.25c-1.25.69-1.59.91-1.34,2.47h-1.34s0-1.8,0-1.8h-3.59c-.85-.87,3.26-6.34,4.26-7.15,1.29-.01.32,5.88.71,6.24Zm-1.38.03l-.22-3.58-2.47,3.58h2.69Z"/>
      <path class="cls-2" d="m162.64,180.52c-.84.33-1.57-.71-2.02-.73-.75-.04-4.69,2.1-4.25-1.72.3-2.67,4.28-1.66,4.48-2.71l-1.19-1.48-2.84,1.26c-.3-2.12,4.08-2.3,4.73-1.37.55,1.49-.07,3.25.21,4.72.16.87,1.01,1.14.88,2.02Zm-2.35-1.46c.47-.47.87-1.89.12-2.36l-2.5.65-.22.71c-.27,1.69,1.6,2,2.6,1Z"/>
      <path class="cls-2" d="m162.64,105.26c-.84.33-1.57-.71-2.02-.73-.75-.04-4.69,2.1-4.25-1.72.3-2.67,4.28-1.66,4.48-2.71-.82-3.46-3.56.25-4.03-.22-.3-2.12,4.08-2.3,4.73-1.37.55,1.49-.07,3.25.21,4.72.16.87,1.01,1.14.88,2.02Zm-2.35-1.46c.47-.47.87-1.89.12-2.36l-2.5.65-.22.71c-.27,1.69,1.6,2,2.6,1Z"/>
      <path class="cls-2" d="m132.17,273.7c.47,1.83-3.06.42-3.56.92l-.47,2.66c2.21.03,4.05-.67,4.45,2.05.93,6.26-7.28,2.97-5.8,1.53.91-.88,1.66,1.15,2.07,1.28,2.89.96,4.01-3.18,1.2-4.36l-2.81.83.45-4.92h4.47Z"/>
      <path class="cls-2" d="m214.61,222.63c.45.4-2.13,3.74-2.46,4.48-.36.81-1.12,4.43-1.35,4.48-1.41.3-1.24-.31-1.01-1.47.47-2.4,2.25-4.34,3.03-6.6-.55-.49-4.89.98-4.48-.9h6.27Z"/>
      <path class="cls-2" d="m205.65,231.59h-1.34v-6.27c0-.13-2.17.27-2.24-.89,1.19-.2,2.29-.29,2.68-1.58.25-.44.9.4.9.45v8.29Z"/>
      <polygon class="cls-2" points="153.68 95.85 153.68 104.81 152.34 104.81 152.14 98.51 150.09 97.87 153.68 95.85"/>
      <path class="cls-2" d="m197.58,243.69v8.29l-1.34.67v-6.72l-2.24-.22c1.53-.49,2.09-2.21,3.58-2.02Z"/>
      <polygon class="cls-2" points="200.27 165.29 200.27 173.8 198.93 173.8 198.93 167.53 197.14 167.53 197.14 166.64 200.27 165.29"/>
      <path class="cls-2" d="m277.77,223.08c-1.36.29-.97-1.64-2.46-1.63-1.2,0-2.22,1.84-2.01,2.98,6.76-2.86,6.11,7.65.45,5.14-2.03-.9-1.87-5.93-.86-7.56,1.13-1.82,5.27-1.74,4.88,1.07Zm-1.4,1.86c-1.89-.57-3.45.68-2.9,2.63,1.03,3.67,5.04.65,2.9-2.63Z"/>
      <path class="cls-2" d="m312.72,58.22c1.02-.95,1.76,1.51,2.55,1.74,3.16.89,3.59-3.99.13-3.53-.23-1.5,1.25-.46,1.93-1.91.63-1.35-1.12-2.77-2.39-1.91l-.89,2.03c-.74.04-1,.22-.89-.66.46-3.72,5.91-2.79,5.38.41-.1.61-.8,1.17-.8,1.38,0,.34,2.57,1.89.55,4.23-2.35,2.73-6.61-.82-5.58-1.77Z"/>
      <path class="cls-2" d="m292.11,61.35l4.92.22c-.81,1.1-6.08.97-6.27,0-.49-2.46,9.01-5.41,2.93-7.41l-2.47,2.27c-.84-3.39,3.88-4.24,5.29-1.92,2.19,3.63-5.69,5.69-4.39,6.85Z"/>
      <path class="cls-2" d="m275.53,58.67c.44,1.84-2.89.39-3.53.95l-.51,2.41,3.93.78c2.75,4.5-4.1,7.9-5.27,3.03,1.57-.48,1.28.81,1.78,1.11,2.81,1.68,4.39-2.84,1.49-4.19l-2.82.84.67-4.48,4.26-.44Z"/>
      <path class="cls-2" d="m257.17,64.04c.61.69-1.25,6.32,1.35,6.28v.43c-2.08-.1-.53,2.52-2.24,2.25l-.42-2.05c-.88-.64-4.03.49-3.61-.86.19-.63,4.24-6.82,4.92-6.05Zm-.9,2.69c-.65-.74-3.08,3.23-2.68,3.58l2.49-.42.19-3.16Z"/>
      <path class="cls-2" d="m293.46,223.08h-1.34v-6.27c0-.13-2.17.27-2.24-.89,1.32-.02,2.22-.3,2.68-1.58.25-.44.9.4.9.45v8.29Z"/>
      <path class="cls-2" d="m299.28,214.12v8.96h-1.34v-6.27c-.89-.08-2.1.51-1.79-.89,1.8.19,1.71-1.81,3.13-1.8Z"/>
      <polygon class="cls-2" points="288.08 53.29 288.08 61.58 287.18 62.03 286.74 55.53 284.94 54.86 288.08 53.29"/>
      <path class="cls-2" d="m310.03,51.5v8.96h-.9v-6.27c0-.13-2.19.26-2.24-.89,1.8.22,1.71-1.82,3.13-1.8Z"/>
      <path class="cls-2" d="m62.15,200.82c1.91,2.09.69,4.18-.55,6.16,1.94,7.82,2.41,15.96,3.94,23.84.3,1.55,1.85,9.1,2.23,9.86.88,1.75,5.08,2.63,2.15,6.38-2.63,3.36-4.32.18-5.98.32-.74.06-6.5,3.75-6.79,4.39-.49,1.12.03,2.41-.92,3.56-2.6,3.13-8.1-.22-5.98-4.19.34-.64,1.15-1.03,1.48-1.66,1.21-2.35.82-6.57,1.16-9.15,1.29-9.73,4.06-21.39,4.47-30.92.14-3.35-.79-3.02-1.25-5.02-.9-3.88,3.63-6.2,6.04-3.57Zm1.39,44.11c.34-.5.22-2.22,1.36-2.91l-5.29-32.38-4.93,39.87c.35.36,8.58-4.16,8.86-4.58Z"/>
      <path class="cls-2" d="m39.32,285.42c3.65-.57,2.33,3.35,2.5,4.56.06.45.74.95.81,1.86.27,3.71-6.07,4.05-6.21.37-.04-1.12,1.08-1.66,1.17-2.24.09-.63-1.12-1.17-.77-2.51.18-.69,1.8-1.94,2.5-2.05Zm1.41,3.91c.85-.53.24-3.89-1.74-2.87-2.21,1.14-.18,4.07,1.74,2.87Zm-1.86,1.02c-1.61.45-1.66,2.94,0,3.44,3.62,1.08,2.88-4.24,0-3.44Z"/>
      <path class="cls-2" d="m72.6,270.57c1.3-.18,1.21,1.73,2.53,1.71s2.24-1.88,1.94-3.05c-6.39,2.93-5.58-7.47-.45-5.14,3.18,1.45,1.82,9.68-1.91,9.1-1.08-.17-2.42-1.37-2.11-2.61Zm3.97-5.76c-2.11-1.31-4.26,2.31-2.32,4.01.93.54,1.87.28,2.61-.48.5-.61.11-3.28-.29-3.53Z"/>
      <path class="cls-2" d="m86.37,297.96c4.72-.85,4.74,9.09.75,9.33-4.5.28-4.18-8.71-.75-9.33Zm-.04.88c-1.66.54-1.53,5.84-.53,7.12,3.37,3.39,4.38-8.37.53-7.12Z"/>
      <path class="cls-2" d="m52.11,264.2c.1.14.54.11.76.1l-.68.89c-2.03-1.88-3.37,1.19-5.37-.9l.18-2.96c.89-1.11,3.23-.07,4.07-1.75l-1.56-1.13c-3.96,3.27-3.05-1.08.42-.86,3.71.23,1.18,5.2,2.17,6.61Zm-4.11-2.55c-.71.84.28,4.1,2.38,1.72,2.23-2.52-1.78-2.43-2.38-1.72Z"/>
      <path class="cls-2" d="m64.87,191.38c1.29,1.29-.32,5.13,1.45,6.61l-5.83-.22c-1.02-.93-.84-2.1-.33-3.25l3.64-1.01c.84-.37.07-1.91-.84-1.82l-2.9.71c.87-1.39,3.59-2.23,4.81-1.01Zm-.79,3.03l-2.73.63c-1.01,1.1.17,2.72,1.39,2.33l1.12-.72.22-2.24Z"/>
      <path class="cls-2" d="m71.25,253.54c1.19,5.73,7.05-.9,1.35-1.35-.26-1.4.99-.59,1.76-1.61,1.66-2.2-2.51-3.93-3.33-.19-1.27.72-.54-2.59.99-3.05,1.8-.55,3.95.21,3.77,2.39-.08.91-.84,1.62-.84,1.8,0,.32,1.11.83,1.26,1.8.44,2.92-3.07,4.29-5.18,2.45-1.02-.89-1.58-2.27.23-2.25Z"/>
      <path class="cls-2" d="m41.38,262.64c-.18.19-.65,1.16-.6,1.2l4.93.23c-.8,1.13-6.19.93-6.25,0-.21-2.85,6.4-3.5,4.72-6.98l-2.51-.21-1.77,2.03c-.5-4.78,7.01-3.76,5.64.47-.53,1.63-3.16,2.19-4.15,3.26Z"/>
      <path class="cls-2" d="m93.65,275.5c1.68,1.28-3.44.75-3.58.89v2.69c3.17-1.59,5.93,2.42,3.35,4.91-1.63,1.57-5.09.86-5.14-1.77,1.35-.12,1.62,1.66,2.9,1.77,2.28.18,2.69-3.38.83-4.4l-3.28.83.45-4.92h4.47Z"/>
      <path class="cls-2" d="m83.34,256.67c-.84.33-1.57-.7-2.02-.73-.5-.03-1.23.83-2.21.75-1.72-.15-2.67-2.61-1.48-3.94l3.92-1.23c-.83-3.46-3.55.25-4.03-.22.4-2.36,3.06-2.68,4.72-1.36.6.89-.02,3.45.22,4.71.16.87,1.01,1.14.88,2.02Zm-2.35-1.46c.6-.6.85-2.33-.14-2.55-.98.27-2.36.39-2.46,1.54-.27,1.68,1.61,2,2.6,1Z"/>
      <path class="cls-2" d="m42.58,321.19c.52.51-1.89,4.16-2.32,5.07-.62,1.34-.49,3.83-2.16,3.88-.28-3.09,2.03-5.42,3.13-8.06-.18-.16-6.25.45-4.48-.9h5.82Z"/>
      <path class="cls-2" d="m81.11,297.89v8.96h-1.34v-6.27c-.89-.08-2.1.51-1.79-.89,1.8.19,1.71-1.81,3.13-1.8Z"/>
      <polygon class="cls-2" points="85.59 275.49 85.59 283.78 84.69 284.23 84.25 277.73 82.45 277.07 85.59 275.49"/>
      <polygon class="cls-2" points="56.91 189.03 56.91 197.54 55.57 197.54 55.57 191.27 53.78 191.27 53.78 190.38 56.91 189.03"/>
      <polygon class="cls-2" points="87.82 248.17 86.89 248.87 87.38 250.4 85.59 249.51 84.69 250.4 85.17 248.86 84.25 247.72 85.51 248.1 85.81 247.27 87.82 248.17"/>
      <path class="cls-2" d="m504.78,49.35c2.05-.61,3.12.85,4.86,1.23,4.93,1.06,12.16.88,17.44,1.38,4.41.42,9.59,1.68,13.91,1.8,2.72.08,4.25-2.92,6.95-.27,2.26,2.22.89,4.39-1.14,6.08l-.25,133.74c.29,2.15,4.04,3.81,1.18,6.96-2.85,3.13-4.61-.28-6.4-.83-4.69-1.44-24.91-2.9-30.37-2.83-2.33.03-4.23,2.1-6.53.3-2.48-1.95-.63-3.99-.39-6.28l-.12-134.77c-2.48-1.69-1.79-5.71.86-6.5Zm36.79,6.7c-10.57-.63-21.18-2.75-31.74-2.53l-3.06,3.21v133.58c2.75.58,2.95,1.97,4.24,4.04l30.57,2.68c.42-1.79,1.13-2.32,2.78-2.9V60.66s-2.78-4.61-2.78-4.61Z"/>
      <path class="cls-2" d="m542.09,210.09c1.55-.3.66,1.44,1.9,1.95,3.31,1.34,4.43-3.72.33-3.3l2.05-1.79-.32-2.17-2.21.13-.42,2.05c-.54-.09-1.49.47-1.35-.67.51-3.96,5.99-2.65,5.82,0-.04.63-.73,1.03-.8,1.43-.08.43.76,1.22.86,2.14.48,4.32-6.27,4.51-5.86.24Z"/>
      <path class="cls-2" d="m496.4,208.29c-.5-3.16,6.76-4.66,4.52-7.43-2.03-2.51-2.53,1.44-4.07,1.61-.51-4.3,6.5-4.06,5.75.12-.4,2.26-3.98,2.63-4.86,4.81,1.37.13,2.94-.17,4.26,0,.82.1.72-.15.66.9h-6.27Z"/>
      <path class="cls-2" d="m509.06,207.76c.09.13,1.57.07.55.99-1.73-1.47-4.71.95-5.82-.9-2.3-3.82,4.25-3.42,4.25-4.71l-1.56-1.13c-.86,0-3.45,3.28-2.02-.22l4.29.21c.66,1.27-.28,4.92.31,5.76Zm-2.04-2.97c-4.34.2-1.04,6.36,1.02.61l-1.02-.61Z"/>
      <path class="cls-2" d="m555.08,213.22c-.88.24-1.18-.91-1.94-.83-1.11.12-2.34,1.89-3.84-.34-2.27-3.4,3.74-3.17,3.98-3.98.16-.86-.2-1.51-1.12-1.6-1.42-.13-1.89,2.29-2.91,1.37-.83-.75,3.1-3.87,4.88-1.07,1.06,1.67.05,4.53.94,6.45Zm-1.79-4.03c-1.13.06-3.03.3-3.16,1.57-.3,2.88,4.24,1.31,3.16-1.57Z"/>
      <path class="cls-2" d="m552.39,50.15c-.84.31-1.52-.67-2.02-.71-1.05-.09-2.9,1.82-4.02-.64-1.41-3.09,2.14-3.08,4.25-3.58-.56-3.79-3.59-.02-4.03-.45.4-2.36,3.06-2.68,4.72-1.36.6.89-.02,3.45.22,4.71.16.87,1.01,1.14.88,2.02Zm-2.35-1.46c.6-.6.85-2.33-.14-2.55-.98.27-2.36.39-2.46,1.54-.27,1.68,1.61,2,2.6,1Z"/>
      <path class="cls-2" d="m544.33,40.75c.27.28-.26,4.57,0,5.53.14.5,1.13-.07.91.96-1.56.34-.36,2.56-2.24,2.46v-2.24c-.34-.34-4.57.7-4.03-.66.12-.31,3.56-5.37,3.82-5.59.56-.49.77-.58,1.55-.46Zm-1.34,5.82l-.22-3.58-2.47,3.58h2.69Z"/>
      <path class="cls-2" d="m512.08,47.01c-1.91-.86-6.45,1.33-6.27-1.97.12-2.32,2.64-2.38,4.48-2.51l-1.13-1.82-2.9,1.38c-.34-2.26,3.4-3.03,4.52-1.61,1.18,1.49-.53,4.93,1.3,6.53Zm-1.79-3.58c-3.09-1.08-4.39,3.53-1.74,2.92,1.28-.3,2.01-1.62,1.74-2.92Z"/>
      <path class="cls-2" d="m482.6,53.37c-.22.38-.06.85-.1,1.26l4.48.45h-5.82c-.51-3.24,4.53-3.53,4.52-6.04-.01-2.98-3.73-2.2-3.18.67-2.24.11-1-2.65.31-3.05,2.93-.9,5.22.94,3.84,3.84-.63,1.32-3.79,2.42-4.05,2.88Z"/>
      <path class="cls-2" d="m503.12,38.06v8.51h-1.34v-6.27c-.9-.08-2.1.52-1.79-.89l3.14-1.35Z"/>
      <path class="cls-2" d="m556.87,41.65l-1.33,1.11.89,1.12c-1.49-.23-1.26-1.37-2.68,0l.48-1.54-.92-1.15,1.27.38.29-.83,2.02.9Z"/>
      <path class="cls-3" d="m452.43,41.26c1.49,2.38-2.12,4.53-3.3,2.17-1.3-2.59,2.58-3.32,3.3-2.17Z"/>
      <path class="cls-3" d="m450.57,36.76c1.86-.46,2.72,2.54.72,3.04-1.86.46-2.72-2.54-.72-3.04Z"/>
      <path class="cls-3" d="m387.39,43.03c2.56-.67,3.14,6.04-.77,4.23-1.18-1.12-.78-3.82.77-4.23Z"/>
      <path class="cls-3" d="m387.42,202.58c1.43,1.48.25,4.91-2.13,3.71s.06-5.85,2.13-3.71Z"/>
      <polygon class="cls-3" points="365.14 208.3 362.45 208.29 364.91 204.71 365.14 208.3"/>
      <path class="cls-3" d="m427.4,110.19l-.2,3.6-1.81.42c-.83-.21-.51-.6-.25-1.13.45-.88,1.43-2.31,2.25-2.9Z"/>
      <path class="cls-3" d="m684.39,78.43c1.94-.65,3.87,1.43,2.41,2.87-2.42,2.39-4.45-2.18-2.41-2.87Z"/>
      <path class="cls-3" d="m684.17,76.97c-1.03-1.65,1.3-3.79,2.43-2.2,1.23,1.73-1.62,3.51-2.43,2.2Z"/>
      <path class="cls-3" d="m626.62,59.63c2.02-.17,2.94,5-.52,4.43-1.9-.31-1.61-4.25.52-4.43Z"/>
      <polygon class="cls-3" points="665.29 232.04 662.6 232.03 665.07 228.46 665.29 232.04"/>
      <path class="cls-3" d="m735.06,230.36c1.06,1.05.5,2.8-1.03,3.03-3.93.6-1.5-5.54,1.03-3.03Z"/>
      <path class="cls-3" d="m732.6,228.78c-1.07-1.07-.03-3.7,1.68-2.81,2.14,1.11.1,4.59-1.68,2.81Z"/>
      <path class="cls-3" d="m787.45,151c2.44-.63,2.87,4.73-.08,4.47-1.91-.17-1.79-3.99.08-4.47Z"/>
      <path class="cls-3" d="m884.68,199.85c2.47-.69,3.27,2.87,1.15,3.46-2.47.69-3.27-2.87-1.15-3.46Z"/>
      <path class="cls-3" d="m884.63,195.79c2.35-.78,2.58,2.62,1.25,3.06-2.35.78-2.58-2.62-1.25-3.06Z"/>
      <path class="cls-3" d="m843.09,169.38l.44,3.22c-3.39,3.6-5.67-4.24-.44-3.22Z"/>
      <path class="cls-3" d="m876.14,325.71c2.52-.66,3.14,7.89-.07,7.6-2.23-.2-2.04-7.05.07-7.6Z"/>
      <polygon class="cls-3" points="872.71 242.34 870.02 242.34 872.49 238.76 872.71 242.34"/>
      <path class="cls-3" d="m828.81,297h-2.24s1.8-3.58,1.8-3.58c1.01.4.19,2.69.44,3.58Z"/>
      <path class="cls-3" d="m153.12,252.54c-2.07,2.14-4.51-2.51-2.13-3.71s3.56,2.23,2.13,3.71Z"/>
      <path class="cls-3" d="m204.86,166.29c2.45-1.19,4.1,1.81,2.14,3.71-3.03,1.13-3.29-1.48-2.14-3.71Z"/>
      <path class="cls-3" d="m195.13,88.25c1.88,1.48-.43,4.03-2.04,2.91s.97-2.68,2.04-2.91Z"/>
      <polygon class="cls-3" points="188.18 89.13 185.49 89.13 187.95 85.55 188.18 89.13"/>
      <path class="cls-3" d="m160.29,179.06c-1,.99-2.87.68-2.6-1l.22-.71,2.5-.65c.76.46.36,1.89-.12,2.36Z"/>
      <path class="cls-3" d="m160.29,103.8c-1,.99-2.87.68-2.6-1l.22-.71,2.5-.65c.76.46.36,1.89-.12,2.36Z"/>
      <path class="cls-3" d="m276.37,224.93c2.14,3.29-1.87,6.3-2.9,2.63-.55-1.96,1.01-3.2,2.9-2.63Z"/>
      <path class="cls-3" d="m256.27,66.73l-.19,3.16-2.49.42c-.39-.35,2.04-4.32,2.68-3.58Z"/>
      <path class="cls-3" d="m38.87,290.34c2.88-.8,3.62,4.52,0,3.44-1.66-.49-1.6-2.99,0-3.44Z"/>
      <path class="cls-3" d="m40.73,289.32c-1.92,1.2-3.95-1.73-1.74-2.87,1.98-1.02,2.59,2.34,1.74,2.87Z"/>
      <path class="cls-3" d="m76.57,264.8c.4.25.78,2.92.29,3.53-.74.76-1.67,1.02-2.61.48-1.95-1.69.21-5.32,2.32-4.01Z"/>
      <path class="cls-3" d="m86.32,298.84c3.85-1.25,2.85,10.52-.53,7.12-1.01-1.28-1.14-6.58.53-7.12Z"/>
      <path class="cls-3" d="m48.01,261.65c.61-.71,4.61-.8,2.38,1.72-2.11,2.38-3.1-.88-2.38-1.72Z"/>
      <path class="cls-3" d="m64.08,194.41l-.22,2.24-1.12.72c-1.23.39-2.4-1.23-1.39-2.33l2.73-.63Z"/>
      <path class="cls-3" d="m80.99,255.22c-.99.99-2.87.68-2.6-1,.1-1.15,1.48-1.28,2.46-1.54.99.22.74,1.94.14,2.55Z"/>
      <path class="cls-3" d="m507.02,204.79l1.02.61c-2.06,5.75-5.37-.41-1.02-.61Z"/>
      <path class="cls-3" d="m553.29,209.19c1.08,2.87-3.46,4.45-3.16,1.57.13-1.27,2.03-1.51,3.16-1.57Z"/>
      <path class="cls-3" d="m550.04,48.7c-.99.99-2.87.68-2.6-1,.1-1.15,1.48-1.28,2.46-1.54.99.22.74,1.94.14,2.55Z"/>
      <polygon class="cls-3" points="542.99 46.57 540.3 46.57 542.77 42.99 542.99 46.57"/>
      <path class="cls-3" d="m510.28,43.44c.27,1.3-.46,2.62-1.74,2.92-2.65.62-1.34-4,1.74-2.92Z"/>
      <path class="cls-2" d="m174.74,148.71l1.35.31c.05.57.07,1.19.72,1.42,3.76,1.36,4.02-4.02.17-3.53.17-1.01,1.64-.73,2.03-1.32,1.04-1.56-.21-3.19-2.04-2.51l-1.57,2.49c-1.69-4.14,5.31-4.55,5.2-1.11-.03.9-.8,1.51-.8,1.79,0,.36,1.12,1.21,1.2,2.26.26,3.61-6.14,4.21-6.27.2Z"/>
      <path class="cls-2" d="m188.18,151.4c-1.65-.76-4.9.64-5.87-.63-2.04-2.65,1.25-4.19,3.62-3.86v-1.78s-3.58.89-3.58.89c-.1-2.12,3.56-2.38,4.52-1.16,1.09,2.1-.49,4.66,1.3,6.53Zm-2.24-3.58l-2.27.2-.42,2.49,2.27-.2.42-2.49Z"/>
      <polygon class="cls-3" points="185.94 147.82 185.52 150.31 183.25 150.5 183.67 148.01 185.94 147.82"/>
    </g>
  </g>
</svg>